<svg width="32" height="32" viewBox="0 0 32 32" fill="none" xmlns="http://www.w3.org/2000/svg">
<path d="M16.0197 22H13.5041L12.5041 19.3984H7.92594L6.98063 22H4.5275L8.98844 10.5469H11.4338L16.0197 22ZM11.7619 17.4688L10.1838 13.2188L8.63688 17.4688H11.7619ZM17.0819 10.5469H21.66C22.5662 10.5469 23.2407 10.5859 23.6834 10.6641C24.1314 10.737 24.5298 10.8932 24.8787 11.1328C25.2329 11.3724 25.5272 11.6927 25.7616 12.0938C25.9959 12.4896 26.1131 12.9349 26.1131 13.4297C26.1131 13.9661 25.9673 14.4583 25.6756 14.9062C25.3892 15.3542 24.9985 15.6901 24.5037 15.9141C25.2017 16.1172 25.7381 16.4635 26.1131 16.9531C26.4881 17.4427 26.6756 18.0182 26.6756 18.6797C26.6756 19.2005 26.5532 19.7083 26.3084 20.2031C26.0689 20.6927 25.7381 21.0859 25.3162 21.3828C24.8996 21.6745 24.384 21.8542 23.7694 21.9219C23.384 21.9635 22.4543 21.9896 20.9803 22H17.0819V10.5469ZM19.3944 12.4531V15.1016H20.91C21.811 15.1016 22.3709 15.0885 22.5897 15.0625C22.9855 15.0156 23.2954 14.8802 23.5194 14.6562C23.7485 14.4271 23.8631 14.1276 23.8631 13.7578C23.8631 13.4036 23.7642 13.1172 23.5662 12.8984C23.3735 12.6745 23.0845 12.5391 22.6991 12.4922C22.4699 12.4661 21.811 12.4531 20.7225 12.4531H19.3944ZM19.3944 17.0078V20.0703H21.535C22.3683 20.0703 22.897 20.0469 23.1209 20C23.4647 19.9375 23.7433 19.7865 23.9569 19.5469C24.1756 19.3021 24.285 18.9766 24.285 18.5703C24.285 18.2266 24.2017 17.9349 24.035 17.6953C23.8683 17.4557 23.6261 17.2812 23.3084 17.1719C22.9959 17.0625 22.3136 17.0078 21.2616 17.0078H19.3944Z" fill="white"/>
</svg>
