<svg width="44" height="44" viewBox="0 0 44 44" fill="none" xmlns="http://www.w3.org/2000/svg">
<rect x="1" y="1" width="42" height="42" rx="9" fill="#9E8FC3" stroke="white" stroke-width="2"/>
<path d="M22.0197 28H19.5041L18.5041 25.3984H13.9259L12.9806 28H10.5275L14.9884 16.5469H17.4338L22.0197 28ZM17.7619 23.4688L16.1838 19.2188L14.6369 23.4688H17.7619ZM23.0819 16.5469H27.66C28.5662 16.5469 29.2407 16.5859 29.6834 16.6641C30.1314 16.737 30.5298 16.8932 30.8787 17.1328C31.2329 17.3724 31.5272 17.6927 31.7616 18.0938C31.9959 18.4896 32.1131 18.9349 32.1131 19.4297C32.1131 19.9661 31.9673 20.4583 31.6756 20.9062C31.3892 21.3542 30.9985 21.6901 30.5037 21.9141C31.2017 22.1172 31.7381 22.4635 32.1131 22.9531C32.4881 23.4427 32.6756 24.0182 32.6756 24.6797C32.6756 25.2005 32.5532 25.7083 32.3084 26.2031C32.0689 26.6927 31.7381 27.0859 31.3162 27.3828C30.8996 27.6745 30.384 27.8542 29.7694 27.9219C29.384 27.9635 28.4543 27.9896 26.9803 28H23.0819V16.5469ZM25.3944 18.4531V21.1016H26.91C27.811 21.1016 28.3709 21.0885 28.5897 21.0625C28.9855 21.0156 29.2954 20.8802 29.5194 20.6562C29.7485 20.4271 29.8631 20.1276 29.8631 19.7578C29.8631 19.4036 29.7642 19.1172 29.5662 18.8984C29.3735 18.6745 29.0845 18.5391 28.6991 18.4922C28.4699 18.4661 27.811 18.4531 26.7225 18.4531H25.3944ZM25.3944 23.0078V26.0703H27.535C28.3683 26.0703 28.897 26.0469 29.1209 26C29.4647 25.9375 29.7433 25.7865 29.9569 25.5469C30.1756 25.3021 30.285 24.9766 30.285 24.5703C30.285 24.2266 30.2017 23.9349 30.035 23.6953C29.8683 23.4557 29.6261 23.2812 29.3084 23.1719C28.9959 23.0625 28.3136 23.0078 27.2616 23.0078H25.3944Z" fill="white"/>
</svg>
