<svg width="28" height="28" viewBox="0 0 28 28" fill="none" xmlns="http://www.w3.org/2000/svg">
<path d="M22.3062 17.43L22.6796 18.1883C22.8662 18.5617 23.3446 18.9117 23.7412 18.9817L24.2429 19.0633C25.7712 19.32 26.1212 20.44 25.0362 21.5367L24.5696 22.0033C24.2546 22.3183 24.0912 22.925 24.1846 23.3683L24.2429 23.6483C24.6629 25.4917 23.6829 26.2033 22.0846 25.235L21.7462 25.025C21.3379 24.78 20.6612 24.78 20.2529 25.025L19.9146 25.235C18.3046 26.2033 17.3362 25.4917 17.7562 23.6483L17.8146 23.3683C17.9079 22.9367 17.7446 22.3183 17.4296 22.0033L16.9629 21.5367C15.8779 20.4283 16.2279 19.32 17.7562 19.0633L18.2579 18.9817C18.6662 18.9117 19.1329 18.5617 19.3196 18.1883L19.6929 17.43C20.4162 15.9717 21.5829 15.9717 22.3062 17.43Z" fill="white"/>
<path d="M18.888 2.33333H9.11134C4.86467 2.33333 2.33301 4.865 2.33301 9.11167V18.8883C2.33301 23.135 4.86467 25.6667 9.11134 25.6667H15.2713C15.6797 25.6667 15.9713 25.2467 15.9247 24.8383C15.878 24.395 15.9013 23.87 16.0413 23.2633C16.0647 23.1817 16.0413 23.0883 15.9713 23.0183L15.7147 22.7617C14.723 21.7583 14.3613 20.545 14.7113 19.4367C15.073 18.34 16.0763 17.57 17.4647 17.3367L17.8147 17.2783L18.1297 16.6483C18.7713 15.3417 19.8213 14.5833 20.9997 14.5833C22.178 14.5833 23.228 15.3417 23.8697 16.6483L24.0447 17.01C24.1263 17.185 24.2897 17.3017 24.4763 17.3367C24.5813 17.36 24.6863 17.3833 24.7913 17.4067C25.1997 17.5117 25.6663 17.185 25.6663 16.7533V9.11167C25.6663 4.865 23.1347 2.33333 18.888 2.33333ZM18.9697 10.4533L16.2747 13.93C15.9363 14.3617 15.458 14.6417 14.9097 14.7C14.373 14.77 13.8247 14.6183 13.4047 14.28L11.2697 12.6233C11.188 12.5533 11.0947 12.5533 11.048 12.565C11.0013 12.565 10.9197 12.5883 10.8497 12.6817L8.07301 16.2867C7.89801 16.5083 7.64134 16.625 7.37301 16.625C7.18634 16.625 6.99967 16.5667 6.83634 16.4383C6.45134 16.1467 6.38134 15.5983 6.67301 15.2133L9.44968 11.6083C9.78801 11.1767 10.2663 10.8967 10.8147 10.8267C11.363 10.7567 11.8997 10.9083 12.3313 11.2467L14.4663 12.9267C14.548 12.9967 14.6297 12.985 14.688 12.985C14.7347 12.985 14.8163 12.9617 14.8863 12.8683L17.5813 9.39167C17.873 9.00667 18.4213 8.93667 18.8063 9.24C19.203 9.53167 19.2613 10.08 18.9697 10.4533Z" fill="white"/>
</svg>
