<svg width="28" height="28" viewBox="0 0 28 28" fill="none" xmlns="http://www.w3.org/2000/svg">
<path d="M13.1252 9.42667V12.7633L11.9469 12.355C11.3519 12.145 10.9902 11.9467 10.9902 10.9317C10.9902 10.1033 11.6086 9.42667 12.3669 9.42667H13.1252V9.42667Z" fill="white"/>
<path d="M17.01 17.0683C17.01 17.8967 16.3917 18.5733 15.6333 18.5733H14.875V15.2367L16.0533 15.645C16.6483 15.855 17.01 16.0533 17.01 17.0683Z" fill="white"/>
<path d="M18.888 2.33334H9.11134C4.86467 2.33334 2.33301 4.865 2.33301 9.11167V18.8883C2.33301 23.135 4.86467 25.6667 9.11134 25.6667H18.888C23.1347 25.6667 25.6663 23.135 25.6663 18.8883V9.11167C25.6663 4.865 23.1347 2.33334 18.888 2.33334ZM16.6363 14C17.5463 14.315 18.7597 14.98 18.7597 17.0683C18.7597 18.865 17.3597 20.3233 15.633 20.3233H14.8747V21C14.8747 21.4783 14.478 21.875 13.9997 21.875C13.5213 21.875 13.1247 21.4783 13.1247 21V20.3233H12.7047C10.7913 20.3233 9.23968 18.7017 9.23968 16.7183C9.23968 16.24 9.62468 15.8433 10.1147 15.8433C10.593 15.8433 10.9897 16.24 10.9897 16.7183C10.9897 17.745 11.7597 18.5733 12.7047 18.5733H13.1247V14.6183L11.363 14C10.453 13.685 9.23968 13.02 9.23968 10.9317C9.23968 9.135 10.6397 7.67667 12.3663 7.67667H13.1247V7C13.1247 6.52167 13.5213 6.125 13.9997 6.125C14.478 6.125 14.8747 6.52167 14.8747 7V7.67667H15.2947C17.208 7.67667 18.7597 9.29834 18.7597 11.2817C18.7597 11.76 18.3747 12.1567 17.8847 12.1567C17.4063 12.1567 17.0097 11.76 17.0097 11.2817C17.0097 10.255 16.2397 9.42667 15.2947 9.42667H14.8747V13.3817L16.6363 14Z" fill="white"/>
</svg>
