<svg width="20" height="20" viewBox="0 0 20 20" fill="none" xmlns="http://www.w3.org/2000/svg">
<path d="M2.04703 8.61019C2.05955 8.03955 2.14715 7.47313 2.30753 6.92586C2.35418 6.76478 2.32813 6.6576 2.20515 6.52775C2.01873 6.33115 1.89841 6.0801 1.86131 5.81035C1.82422 5.54059 1.87225 5.26588 1.99856 5.02533C3.28653 2.53497 5.25302 0.860446 7.97072 0.233264C12.0067 -0.699548 16.1026 1.22365 17.971 4.95918C18.2539 5.52573 18.1988 6.08186 17.7807 6.54061C17.734 6.58444 17.7014 6.64142 17.687 6.7042C17.6726 6.76698 17.6772 6.83267 17.7002 6.89279C17.9001 7.57265 17.9473 8.27088 17.9613 8.97523C17.9655 9.18715 17.9152 9.27719 17.6965 9.22513C17.6365 9.21363 17.5748 9.21363 17.5148 9.22513C17.333 9.25146 17.2725 9.18593 17.2803 8.99116C17.2969 8.37923 17.2333 7.76778 17.0913 7.1727C17.0604 7.03979 17.0307 6.96078 16.8611 6.96629C16.2383 6.98711 15.8312 6.66372 15.5495 6.11861C14.7856 4.64865 13.626 3.62581 12.0764 3.0758C8.97759 1.97639 5.90427 3.41879 4.4703 6.08186C4.16739 6.63984 3.77179 6.99569 3.11872 6.97058C2.93213 6.96384 2.93698 7.10165 2.91335 7.20577C2.76796 7.77905 2.70331 8.37021 2.7213 8.96176C2.73039 9.18164 2.66496 9.25881 2.45596 9.22451C2.4061 9.21599 2.3551 9.21724 2.30571 9.22819C2.08883 9.28147 2.01855 9.19389 2.044 8.98013C2.05241 8.857 2.05342 8.73346 2.04703 8.61019Z" fill="white"/>
<path d="M18.6629 13.4384C18.6629 14.2444 18.6629 15.0505 18.6629 15.8565C18.6629 16.4727 18.3908 16.8322 17.7947 16.9486C17.5821 16.9902 17.613 17.1513 17.5851 17.2646C17.384 18.0755 16.909 18.6598 16.1832 19.0408C15.8243 19.2289 15.4256 19.3262 15.0213 19.3244C14.0831 19.3272 13.1445 19.3272 12.2054 19.3244C12.0461 19.3244 11.9358 19.3397 11.8419 19.5081C11.6602 19.8481 11.3452 19.9981 10.9641 19.9981C10.3183 19.9981 9.67251 20.0024 9.0255 19.9981C8.43725 19.9932 7.99561 19.5565 7.99561 18.9887C7.99561 18.421 8.43725 17.9843 9.0255 17.9794C9.66161 17.9739 10.2977 17.9794 10.9332 17.9794C11.3367 17.9794 11.6602 18.1368 11.8589 18.4975C11.9304 18.6286 12.0122 18.6562 12.1436 18.6555C13.102 18.6513 14.0611 18.6598 15.0201 18.6506C15.9167 18.6415 16.6515 18.0529 16.9126 17.1746C16.9581 17.0227 16.9654 16.9749 16.7878 16.9381C16.2971 16.8359 15.9954 16.4482 15.9942 15.9312C15.9906 14.2681 15.9906 12.605 15.9942 10.9419C15.9942 10.3294 16.4183 9.90622 17.0168 9.8952C17.2289 9.89152 17.4409 9.8903 17.6524 9.8952C18.237 9.90867 18.6532 10.3313 18.6574 10.9272C18.6671 11.7651 18.6629 12.6018 18.6629 13.4384Z" fill="white"/>
<path d="M4.00199 13.417C4.00199 14.2426 4.00199 15.0676 4.00199 15.8932C4.00199 16.5345 3.61245 16.9436 2.98119 16.9681C2.7389 16.9795 2.49617 16.9766 2.25421 16.9596C1.7429 16.9191 1.34548 16.5174 1.34003 16.001C1.32912 14.2889 1.32912 12.5768 1.34003 10.8648C1.33954 10.6323 1.42309 10.4077 1.57493 10.2332C1.72678 10.0588 1.93647 9.94637 2.16455 9.91724C2.50427 9.86956 2.84894 9.87059 3.18838 9.9203C3.69545 9.99931 3.99775 10.4103 4.00018 10.9401C4.00502 11.7657 4.00199 12.5913 4.00199 13.417Z" fill="white"/>
<path d="M19.3383 16.0953V10.7729C19.7624 11.0319 19.9823 11.3994 19.9896 11.8674C20.0059 12.9086 19.9999 13.9455 19.9926 14.9843C19.9896 15.4437 19.7721 15.805 19.3383 16.0953Z" fill="white"/>
<path d="M0.657313 10.7992V16.0427C0.312602 15.9361 0.013328 15.4915 0.00848146 15.0058C-0.00282715 13.9572 -0.00282715 12.9084 0.00848146 11.8594C0.0127222 11.3982 0.25505 11.0265 0.657313 10.7992Z" fill="white"/>
<path d="M9.55896 7.59567C9.9745 7.47873 10.4224 7.44335 10.7767 7.80466C10.9231 7.95517 11.0189 8.14443 10.9955 8.35544C10.9688 8.62309 11.0745 8.7551 11.3265 8.79001C11.3564 8.79409 11.3847 8.80509 11.4095 8.82224C11.6639 9.00593 11.8696 8.98915 12.101 8.74313C12.2863 8.54538 12.5584 8.51822 12.8334 8.60446C13.2496 8.73247 13.6536 9.22288 13.6566 9.67673C13.6716 9.90386 13.5458 10.1197 13.349 10.2929C13.2279 10.3982 13.2055 10.4962 13.2963 10.6259C13.3134 10.6512 13.3263 10.6795 13.3344 10.709C13.4294 11.0561 13.5672 11.2811 14.0092 11.2812C14.398 11.2812 14.6482 11.6643 14.6635 12.0703C14.6683 12.1928 14.6683 12.3159 14.6635 12.4384C14.6457 12.9031 14.3149 13.2693 13.8607 13.2529C13.5784 13.2425 13.5021 13.3713 13.3998 13.5918C13.2568 13.898 13.2061 14.1244 13.4955 14.3994C13.7378 14.6309 13.7287 14.9902 13.5511 15.2793C13.2773 15.7257 12.8377 16.0856 12.3392 15.9062C12.2454 15.8715 12.156 15.8247 12.0736 15.7675C11.9588 15.6903 11.8953 15.4886 11.7533 15.5224C11.5118 15.5869 11.2775 15.6782 11.056 15.7949C10.9666 15.8389 11.0023 15.962 11.0043 16.0508C11.0115 16.4599 10.8487 16.7979 10.4652 16.9082C10.0624 17.0306 9.62482 17.065 9.26501 16.7392C9.17082 16.6537 9.09751 16.5472 9.05212 16.4277C9.00673 16.3081 8.98986 16.1791 9.0033 16.0517C9.0154 15.8742 8.97284 15.7627 8.78162 15.7314C8.69223 15.7163 8.60677 15.682 8.53162 15.6308C8.3117 15.4789 8.15766 15.5298 7.97107 15.7197C7.66827 16.0257 7.23555 16.0334 6.8988 15.7685C6.75523 15.6568 6.6257 15.527 6.51404 15.3828C6.24391 15.0307 6.29084 14.5815 6.64197 14.2324C6.77101 14.1038 6.81459 13.9954 6.70251 13.8447C6.6956 13.8374 6.69054 13.8287 6.68689 13.8193C6.58754 13.4653 6.45744 13.2067 5.99158 13.2275C5.69721 13.2428 5.46431 12.9924 5.38611 12.6728C5.20436 11.9152 5.44107 11.1911 6.32556 11.2431C6.43506 11.2498 6.48195 11.2075 6.51404 11.1035C6.55719 10.9472 6.61807 10.7963 6.69568 10.6543C6.79077 10.4938 6.75991 10.3965 6.63513 10.2685C6.29963 9.92995 6.25385 9.52358 6.48376 9.16599C6.8006 8.67601 7.27169 8.46052 7.70544 8.61423C7.76996 8.64155 7.83238 8.67387 7.89197 8.71091C8.02401 8.78194 8.092 9.00425 8.24158 8.97067C8.48382 8.9174 8.70723 8.79316 8.93494 8.68845C9.04217 8.63945 9 8.52663 8.99939 8.44333C8.99944 8.03121 9.17553 7.70345 9.55896 7.59567ZM9.99451 9.88278C9.37805 9.88506 8.78724 10.1348 8.35291 10.5771C7.91867 11.0193 7.67597 11.6181 7.6781 12.2412C7.6781 13.5409 8.72047 14.6043 9.99451 14.6025C10.302 14.6017 10.6063 14.5388 10.89 14.4189C11.1739 14.2989 11.4321 14.1232 11.6488 13.9023C11.8654 13.6815 12.0373 13.4197 12.1537 13.1318C12.27 12.8439 12.3292 12.5356 12.3275 12.2246C12.3253 11.6013 12.0775 11.0045 11.64 10.5654C11.2026 10.1264 10.6109 9.8806 9.99451 9.88278Z" fill="white"/>
</svg>
