<svg width="20" height="20" viewBox="0 0 20 20" fill="none" xmlns="http://www.w3.org/2000/svg">
<path d="M2.04703 8.61019C2.05955 8.03955 2.14715 7.47313 2.30753 6.92586C2.35418 6.76478 2.32813 6.6576 2.20515 6.52775C2.01873 6.33115 1.89841 6.0801 1.86131 5.81035C1.82422 5.54059 1.87225 5.26588 1.99856 5.02533C3.28653 2.53497 5.25302 0.860446 7.97072 0.233264C12.0067 -0.699548 16.1026 1.22365 17.971 4.95918C18.2539 5.52573 18.1988 6.08186 17.7807 6.54061C17.734 6.58444 17.7014 6.64142 17.687 6.7042C17.6726 6.76698 17.6772 6.83267 17.7002 6.89279C17.9001 7.57265 17.9473 8.27088 17.9613 8.97523C17.9655 9.18715 17.9152 9.27719 17.6965 9.22513C17.6365 9.21363 17.5748 9.21363 17.5148 9.22513C17.333 9.25146 17.2725 9.18593 17.2803 8.99116C17.2969 8.37923 17.2333 7.76778 17.0913 7.1727C17.0604 7.03979 17.0307 6.96078 16.8611 6.96629C16.2383 6.98711 15.8312 6.66372 15.5495 6.11861C14.7856 4.64865 13.626 3.62581 12.0764 3.0758C8.97759 1.97639 5.90427 3.41879 4.4703 6.08186C4.16739 6.63984 3.77179 6.99569 3.11872 6.97058C2.93213 6.96384 2.93698 7.10165 2.91335 7.20577C2.76796 7.77905 2.70331 8.37021 2.7213 8.96176C2.73039 9.18164 2.66496 9.25881 2.45596 9.22451C2.4061 9.21599 2.3551 9.21724 2.30571 9.22819C2.08883 9.28147 2.01855 9.19389 2.044 8.98013C2.05241 8.857 2.05342 8.73345 2.04703 8.61019Z" fill="white"/>
<path d="M18.6629 13.4384C18.6629 14.2444 18.6629 15.0505 18.6629 15.8565C18.6629 16.4727 18.3908 16.8322 17.7947 16.9486C17.5821 16.9902 17.613 17.1513 17.5851 17.2646C17.384 18.0755 16.909 18.6598 16.1832 19.0408C15.8243 19.2289 15.4256 19.3262 15.0213 19.3244C14.0831 19.3272 13.1445 19.3272 12.2054 19.3244C12.0461 19.3244 11.9358 19.3397 11.8419 19.5081C11.6602 19.8481 11.3452 19.9981 10.9641 19.9981C10.3183 19.9981 9.67251 20.0024 9.0255 19.9981C8.43725 19.9932 7.99561 19.5565 7.99561 18.9887C7.99561 18.421 8.43725 17.9843 9.0255 17.9794C9.66161 17.9739 10.2977 17.9794 10.9332 17.9794C11.3367 17.9794 11.6602 18.1368 11.8589 18.4975C11.9304 18.6286 12.0122 18.6562 12.1436 18.6555C13.102 18.6513 14.0611 18.6598 15.0201 18.6506C15.9167 18.6415 16.6515 18.0529 16.9126 17.1746C16.9581 17.0227 16.9654 16.9749 16.7878 16.9381C16.2971 16.8359 15.9954 16.4482 15.9942 15.9312C15.9906 14.2681 15.9906 12.605 15.9942 10.9419C15.9942 10.3294 16.4183 9.90622 17.0168 9.8952C17.2289 9.89152 17.4409 9.8903 17.6524 9.8952C18.237 9.90867 18.6532 10.3313 18.6574 10.9272C18.6671 11.7651 18.6629 12.6018 18.6629 13.4384Z" fill="white"/>
<path d="M4.00199 13.417C4.00199 14.2426 4.00199 15.0676 4.00199 15.8932C4.00199 16.5345 3.61245 16.9436 2.98119 16.9681C2.7389 16.9795 2.49617 16.9766 2.25421 16.9596C1.7429 16.9191 1.34548 16.5174 1.34003 16.001C1.32912 14.2889 1.32912 12.5768 1.34003 10.8648C1.33954 10.6323 1.42309 10.4077 1.57493 10.2332C1.72678 10.0588 1.93647 9.94637 2.16455 9.91724C2.50427 9.86956 2.84894 9.87059 3.18838 9.9203C3.69545 9.99931 3.99775 10.4103 4.00018 10.9401C4.00502 11.7657 4.00199 12.5913 4.00199 13.417Z" fill="white"/>
<path d="M19.3383 16.0953V10.7729C19.7624 11.0319 19.9823 11.3994 19.9896 11.8674C20.0059 12.9086 19.9999 13.9455 19.9926 14.9843C19.9896 15.4437 19.7721 15.805 19.3383 16.0953Z" fill="white"/>
<path d="M0.657313 10.7992V16.0427C0.312602 15.9361 0.013328 15.4915 0.00848146 15.0058C-0.00282715 13.9572 -0.00282715 12.9084 0.00848146 11.8594C0.0127222 11.3982 0.25505 11.0265 0.657313 10.7992Z" fill="white"/>
<path d="M9.55872 7.59558C9.97431 7.4786 10.4221 7.4432 10.7765 7.80457C10.9231 7.95524 11.0189 8.14502 10.9952 8.35632C10.9687 8.62367 11.0745 8.755 11.3263 8.78992C11.3563 8.79399 11.3853 8.80487 11.4103 8.82214C11.6646 9.00573 11.8703 8.98919 12.1017 8.74304C12.2871 8.54536 12.5591 8.51803 12.8341 8.60437C13.2502 8.73252 13.6543 9.22289 13.6573 9.67664C13.6724 9.90362 13.5463 10.1196 13.3497 10.2928C13.2286 10.3982 13.2051 10.497 13.296 10.6268C13.313 10.6519 13.326 10.6795 13.3341 10.7089C13.4292 11.0561 13.5676 11.2811 14.0099 11.2811C14.3985 11.2813 14.6479 11.6644 14.6632 12.0702C14.6681 12.1927 14.6681 12.3159 14.6632 12.4384C14.6455 12.9031 14.3148 13.2703 13.8605 13.2538C13.5784 13.2434 13.5028 13.3715 13.4005 13.5917C13.2575 13.8979 13.2066 14.1243 13.4962 14.3993C13.7384 14.6308 13.7284 14.9902 13.5509 15.2792C13.2771 15.7255 12.8375 16.0855 12.339 15.9061C12.2453 15.8714 12.1566 15.8245 12.0743 15.7675C11.9593 15.6903 11.8953 15.4882 11.7531 15.5223C11.5115 15.5868 11.2773 15.6781 11.0558 15.7948C10.9666 15.8389 11.0031 15.962 11.005 16.0507C11.0123 16.4597 10.8493 16.7987 10.4659 16.9091C10.0631 17.0316 9.62463 17.065 9.26477 16.7391C9.17071 16.6537 9.09822 16.547 9.05286 16.4276C9.00746 16.308 8.99059 16.179 9.00403 16.0516C9.01611 15.8741 8.97276 15.7626 8.78137 15.7313C8.69191 15.7162 8.60657 15.682 8.53137 15.6307C8.31157 15.4789 8.15827 15.53 7.9718 15.7196C7.66894 16.0258 7.23537 16.0335 6.89856 15.7684C6.75492 15.6567 6.62549 15.527 6.51379 15.3827C6.2436 15.0305 6.29133 14.5814 6.6427 14.2323C6.77166 14.1037 6.81529 13.9952 6.70325 13.8446C6.69616 13.8372 6.69035 13.8288 6.68665 13.8192C6.58729 13.4652 6.45721 13.2066 5.99133 13.2274C5.69705 13.2426 5.464 12.9923 5.38586 12.6727C5.20413 11.9151 5.44092 11.191 6.32532 11.243C6.43497 11.2498 6.48266 11.2075 6.51477 11.1034C6.55792 10.9472 6.61884 10.7961 6.69641 10.6542C6.79118 10.4941 6.76031 10.3962 6.63586 10.2684C6.30026 9.92974 6.25432 9.52357 6.4845 9.16589C6.80126 8.67603 7.27152 8.46062 7.7052 8.61414C7.76963 8.64142 7.83221 8.67384 7.89172 8.71082C8.02369 8.78181 8.09194 9.00384 8.24133 8.97058C8.48366 8.91729 8.70788 8.79309 8.93567 8.68835C9.04244 8.63927 8.99975 8.52644 8.99915 8.44324C8.99922 8.03118 9.17535 7.70337 9.55872 7.59558ZM9.99426 9.88269C9.37776 9.88496 8.787 10.1347 8.35266 10.577C7.91833 11.0194 7.67561 11.6188 7.67786 12.2421C7.6781 13.5415 8.72038 14.6043 9.99426 14.6024C10.302 14.6016 10.6068 14.5388 10.8907 14.4188C11.1744 14.2989 11.432 14.1238 11.6486 13.9032C11.8653 13.6823 12.037 13.4197 12.1534 13.1317C12.2698 12.8438 12.3289 12.5355 12.3273 12.2245C12.325 11.6013 12.0781 11.0044 11.6407 10.5653C11.2032 10.1262 10.6107 9.88043 9.99426 9.88269Z" fill="white"/>
</svg>
