<svg width="28" height="28" viewBox="0 0 28 28" fill="none" xmlns="http://www.w3.org/2000/svg">
<path d="M14.8164 19.6933H15.6331C16.9747 19.6933 18.0714 18.5967 18.0714 17.255V16.4383H14.8164V19.6933Z" fill="white"/>
<path d="M9.92871 17.255C9.92871 18.5967 11.0254 19.6933 12.367 19.6933H13.1837V16.4383H9.92871V17.255Z" fill="white"/>
<path d="M9.92871 14V14.8167H13.1837V11.5617H12.367C11.0254 11.5617 9.92871 12.6583 9.92871 14Z" fill="white"/>
<path d="M23.368 7.95667L16.6597 3.255C14.828 1.97167 12.028 2.04167 10.2663 3.40667L4.42134 7.96833C3.24301 8.87833 2.33301 10.745 2.33301 12.215V20.265C2.33301 23.24 4.74801 25.6667 7.71134 25.6667H20.2763C23.2397 25.6667 25.6547 23.2517 25.6547 20.2767V12.3667C25.6663 10.7917 24.6513 8.855 23.368 7.95667ZM19.693 17.255C19.693 19.495 17.8613 21.3267 15.6213 21.3267H12.3663C10.1263 21.3267 8.29467 19.5067 8.29467 17.255V14C8.29467 11.76 10.1263 9.92833 12.3663 9.92833H15.6213C17.8613 9.92833 19.693 11.7483 19.693 14V17.255V17.255Z" fill="white"/>
<path d="M15.6331 11.5617H14.8164V14.8167H18.0714V14C18.0714 12.6583 16.9747 11.5617 15.6331 11.5617Z" fill="white"/>
</svg>
