<svg width="30" height="30" viewBox="0 0 30 30" fill="none" xmlns="http://www.w3.org/2000/svg">
<path d="M23.175 5.15L16.3 2.575C15.5875 2.3125 14.425 2.3125 13.7125 2.575L6.8375 5.15C5.5125 5.65 4.4375 7.2 4.4375 8.6125V18.7375C4.4375 19.75 5.1 21.0875 5.9125 21.6875L12.7875 26.825C14 27.7375 15.9875 27.7375 17.2 26.825L24.075 21.6875C24.8875 21.075 25.55 19.75 25.55 18.7375V8.6125C25.5625 7.2 24.4875 5.65 23.175 5.15ZM19.35 12.15L13.975 17.525C13.7875 17.7125 13.55 17.8 13.3125 17.8C13.075 17.8 12.8375 17.7125 12.65 17.525L10.65 15.5C10.2875 15.1375 10.2875 14.5375 10.65 14.175C11.0125 13.8125 11.6125 13.8125 11.975 14.175L13.325 15.525L18.0375 10.8125C18.4 10.45 19 10.45 19.3625 10.8125C19.725 11.175 19.725 11.7875 19.35 12.15Z" fill="url(#paint0_linear_107_866)"/>
<defs>
<linearGradient id="paint0_linear_107_866" x1="4.4375" y1="2.37813" x2="30.8638" y2="10.7636" gradientUnits="userSpaceOnUse">
<stop stop-color="#9333CD"/>
<stop offset="1" stop-color="#5B38AD"/>
</linearGradient>
</defs>
</svg>
