<svg width="30" height="30" viewBox="0 0 30 30" fill="none" xmlns="http://www.w3.org/2000/svg">
<path d="M20.2373 2.5C24.7873 2.5 27.4998 5.2127 27.4873 9.7627V20.2373C27.4873 24.7873 24.7746 27.5 20.2246 27.5H9.7627C5.2127 27.5 2.5 24.7871 2.5 20.2246V9.7627C2.5 5.2127 5.2127 2.5 9.7627 2.5H20.2373ZM8.55859 10C8.50427 10.0493 8.43268 10.0947 8.34473 10.1357C8.25685 10.1768 8.16231 10.2133 8.06152 10.2461C7.96065 10.2748 7.8557 10.298 7.74707 10.3145C7.64112 10.3309 7.53996 10.3389 7.44434 10.3389C7.28151 10.3389 7.1404 10.3291 7.02148 10.3086C6.90255 10.2881 6.79886 10.2604 6.71094 10.2275C6.62585 10.1907 6.5535 10.1541 6.49414 10.1172C6.43727 10.0761 6.38937 10.0369 6.35059 10C6.34541 10.0945 6.32035 10.2057 6.27637 10.333C6.2324 10.4562 6.17526 10.5835 6.10547 10.7148C6.03829 10.8461 5.96087 10.9754 5.87305 11.1025C5.78509 11.2258 5.69469 11.3397 5.60156 11.4424C5.51108 11.5409 5.42056 11.621 5.33008 11.6826C5.23953 11.7442 5.15608 11.7744 5.08105 11.7744H5.05469C5.09606 11.8894 5.12677 12.0826 5.14746 12.3535C5.17074 12.6247 5.18262 12.9315 5.18262 13.2725C5.18261 13.4079 5.17865 13.5415 5.1709 13.6729C5.16315 13.8 5.15122 13.9168 5.13574 14.0234C5.12281 14.1302 5.10434 14.221 5.08105 14.2949C5.0578 14.3688 5.03099 14.4159 5 14.4365H5.03906C5.14504 14.4366 5.2488 14.482 5.34961 14.5723C5.45294 14.6585 5.54357 14.7672 5.62109 14.8984C5.70122 15.0257 5.76532 15.1638 5.81445 15.3115C5.86619 15.4594 5.89522 15.5955 5.90039 15.7188C6.14346 15.6202 6.36831 15.5624 6.5752 15.5459C6.78474 15.5254 6.99587 15.5146 7.20801 15.5146C7.45635 15.5147 7.66881 15.5538 7.84473 15.6318C8.02316 15.7099 8.16809 15.8086 8.2793 15.9277C8.39312 16.0469 8.47561 16.183 8.52734 16.335C8.58156 16.4826 8.60834 16.6262 8.6084 16.7656C8.6084 16.9587 8.58035 17.1135 8.52344 17.2285C8.4666 17.3433 8.39175 17.4316 8.29883 17.4932C8.20838 17.5547 8.10587 17.5956 7.99219 17.6162C7.87838 17.6326 7.76552 17.6406 7.6543 17.6406C7.48873 17.6406 7.33731 17.606 7.2002 17.5361C7.06572 17.4663 6.94887 17.372 6.85059 17.2529C6.75496 17.1339 6.68028 16.9941 6.62598 16.834C6.57167 16.6697 6.54396 16.4971 6.54395 16.3164C6.36824 16.3779 6.16674 16.4082 5.93945 16.4082C5.81528 16.4082 5.68794 16.4029 5.55859 16.3906C5.42929 16.3783 5.29095 16.3534 5.14355 16.3164C5.16164 16.4109 5.17883 16.5873 5.19434 16.8457C5.21244 17.1045 5.2207 17.4051 5.2207 17.7461C5.2207 17.8734 5.21772 18.0051 5.20996 18.1406C5.2048 18.2718 5.19817 18.3968 5.19043 18.5156C5.18267 18.6307 5.17343 18.7321 5.16309 18.8184C5.15534 18.9045 5.14872 18.9642 5.14355 18.9971C5.20816 18.9519 5.28821 18.9145 5.38379 18.8857C5.47939 18.857 5.57795 18.8428 5.67871 18.8428C5.74078 18.8428 5.80449 18.849 5.86914 18.8613C5.93382 18.8695 5.99484 18.882 6.05176 18.8984C6.10859 18.9108 6.1592 18.9267 6.20312 18.9473C6.24964 18.9637 6.28303 18.9806 6.30371 18.9971C6.31664 18.9109 6.33778 18.8183 6.36621 18.7197C6.39725 18.617 6.44773 18.5245 6.51758 18.4424C6.58473 18.5286 6.64197 18.631 6.68848 18.75C6.73763 18.8691 6.77359 18.9928 6.79688 19.1201C6.85108 19.0709 6.91676 19.0299 6.99414 18.9971C7.07434 18.9601 7.16043 18.9307 7.25098 18.9102C7.34399 18.8856 7.43991 18.8695 7.53809 18.8613C7.6389 18.849 7.73736 18.8428 7.83301 18.8428C7.99588 18.8428 8.13692 18.8508 8.25586 18.8672C8.37481 18.8795 8.47716 18.9 8.5625 18.9287C8.65037 18.9533 8.72242 18.9828 8.7793 19.0156C8.83875 19.0485 8.88797 19.0832 8.92676 19.1201C8.92934 19.0257 8.95181 18.9189 8.99316 18.7998C9.03714 18.6766 9.09421 18.5512 9.16406 18.4238C9.23391 18.2965 9.31244 18.1728 9.40039 18.0537C9.48826 17.9306 9.57885 17.8219 9.67188 17.7275C9.76493 17.629 9.8568 17.5507 9.94727 17.4932C10.0378 17.4357 10.1213 17.4072 10.1963 17.4072H10.2227C10.202 17.3538 10.1845 17.2773 10.1689 17.1787C10.1535 17.0762 10.1389 16.9593 10.126 16.8281C10.1156 16.6967 10.1077 16.5525 10.1025 16.3965C10.0974 16.2404 10.0947 16.0776 10.0947 15.9092C10.0947 15.7737 10.0987 15.6419 10.1064 15.5146C10.1142 15.3836 10.1248 15.2648 10.1377 15.1582C10.1532 15.0514 10.173 14.9607 10.1963 14.8867C10.2195 14.8129 10.2464 14.7657 10.2773 14.7451H10.2383C10.1298 14.745 10.0215 14.6995 9.91309 14.6094C9.80456 14.515 9.70604 14.4 9.61816 14.2646C9.53279 14.125 9.46121 13.9764 9.4043 13.8203C9.34743 13.6643 9.31537 13.5246 9.30762 13.4014C9.23012 13.4383 9.13809 13.4668 9.03223 13.4873C8.92619 13.5078 8.8133 13.5248 8.69434 13.5371C8.57533 13.5453 8.4546 13.5516 8.33301 13.5557H7.99609C7.74779 13.5557 7.53791 13.5227 7.36719 13.457C7.19914 13.3913 7.06342 13.305 6.95996 13.1982C6.85655 13.0915 6.78095 12.9704 6.73438 12.835C6.69044 12.6995 6.66899 12.5596 6.66895 12.416C6.66895 12.2435 6.69699 12.1012 6.75391 11.9902C6.81081 11.8794 6.88506 11.7913 6.97559 11.7256C7.06852 11.6559 7.17028 11.6086 7.28125 11.584C7.39502 11.5552 7.50927 11.541 7.62305 11.541C7.78857 11.541 7.93875 11.5775 8.07324 11.6514C8.21035 11.7212 8.32713 11.8199 8.42285 11.9473C8.52104 12.0745 8.59707 12.2224 8.65137 12.3906C8.70567 12.559 8.73337 12.7379 8.7334 12.9268C8.90663 12.8652 9.10749 12.835 9.33496 12.835C9.45119 12.835 9.56737 12.8412 9.68359 12.8535C9.80001 12.8658 9.9247 12.8898 10.0566 12.9268C10.0437 12.8282 10.0279 12.6456 10.0098 12.3789C9.99424 12.1078 9.98633 11.793 9.98633 11.4355C9.98633 11.3083 9.98897 11.1747 9.99414 11.0352C9.99931 10.8955 10.0059 10.7638 10.0137 10.6406C10.0214 10.5176 10.0294 10.4088 10.0371 10.3145C10.0449 10.22 10.0515 10.1559 10.0566 10.123C9.89366 10.2052 9.71717 10.2461 9.52832 10.2461C9.40424 10.2461 9.30315 10.2363 9.22559 10.2158C9.14807 10.1912 9.08955 10.16 9.05078 10.123C9.03786 10.2092 9.01634 10.3099 8.98535 10.4248C8.95431 10.5398 8.90515 10.643 8.83789 10.7334C8.77065 10.6389 8.71223 10.5259 8.66309 10.3945C8.61394 10.259 8.57929 10.1273 8.55859 10ZM18.5508 10.123C18.5042 10.1518 18.4326 10.1785 18.3369 10.2031C18.2439 10.2277 18.1356 10.251 18.0117 10.2715C17.8901 10.292 17.7602 10.308 17.623 10.3203C17.486 10.3326 17.3516 10.3389 17.2197 10.3389C17.0723 10.3389 16.9313 10.3326 16.7969 10.3203C16.6624 10.308 16.539 10.2938 16.4277 10.2773C16.3166 10.2568 16.2181 10.2346 16.1328 10.21C16.0476 10.1812 15.9808 10.1518 15.9316 10.123C15.9291 10.2504 15.9079 10.4211 15.8691 10.6348C15.8303 10.8443 15.7799 11.0764 15.7178 11.3311C15.6557 11.5856 15.585 11.8526 15.5049 12.1318C15.4273 12.4112 15.3465 12.6806 15.2637 12.9395C15.1835 13.1981 15.1036 13.4384 15.0234 13.6602C14.9459 13.8819 14.8755 14.0625 14.8135 14.2021C14.7514 14.0625 14.6807 13.8817 14.6006 13.6602C14.523 13.4383 14.4422 13.1982 14.3594 12.9395C14.2792 12.6806 14.1993 12.4112 14.1191 12.1318C14.0416 11.8526 13.9712 11.5857 13.9092 11.3311C13.8471 11.0764 13.7966 10.8443 13.7578 10.6348C13.719 10.4211 13.6989 10.2504 13.6963 10.123C13.6445 10.1518 13.5756 10.1785 13.4902 10.2031C13.4075 10.2278 13.3104 10.251 13.1992 10.2715C13.0881 10.292 12.9654 10.308 12.8311 10.3203C12.6992 10.3326 12.5581 10.3389 12.4082 10.3389C12.2763 10.3389 12.141 10.3326 12.0039 10.3203C11.8669 10.308 11.7364 10.292 11.6123 10.2715C11.4907 10.2509 11.3819 10.2278 11.2861 10.2031C11.1932 10.1785 11.1237 10.1517 11.0771 10.123C11.0927 10.2257 11.1049 10.3556 11.1152 10.5117C11.1282 10.6677 11.1348 10.8217 11.1348 10.9736C11.1348 11.1174 11.1282 11.2553 11.1152 11.3867C11.1023 11.514 11.0901 11.6271 11.0771 11.7256H11.1504C11.2383 11.7256 11.3205 11.7353 11.3955 11.7559C11.473 11.7764 11.5399 11.8184 11.5967 11.8799C11.6535 11.9374 11.6988 12.0175 11.7324 12.1201C11.766 12.2228 11.7832 12.3563 11.7832 12.5205C11.7832 12.7875 11.7766 13.0339 11.7637 13.2598C11.7507 13.4857 11.7309 13.6849 11.7051 13.8574C11.6818 14.0259 11.6511 14.1637 11.6123 14.2705C11.5735 14.3772 11.5283 14.4431 11.4766 14.4678C11.536 14.4884 11.5879 14.5871 11.6318 14.7637C11.6758 14.9362 11.6973 15.164 11.6973 15.4473C11.6973 15.817 11.689 16.1273 11.6709 16.3779C11.6554 16.6284 11.6197 16.8295 11.5654 16.9814C11.5111 17.1292 11.4325 17.236 11.3291 17.3018C11.2283 17.3633 11.0925 17.3945 10.9219 17.3945C10.9348 17.4931 10.947 17.6123 10.96 17.752C10.9729 17.8875 10.9795 18.0272 10.9795 18.1709C10.9795 18.327 10.9729 18.4791 10.96 18.627C10.9496 18.7707 10.9374 18.8944 10.9219 18.9971C10.9943 18.9724 11.0874 18.952 11.2012 18.9355C11.3175 18.915 11.4428 18.8981 11.5771 18.8857C11.7115 18.8693 11.8501 18.8596 11.9922 18.8555C12.1371 18.8473 12.2763 18.8428 12.4082 18.8428C12.54 18.8428 12.6772 18.8473 12.8193 18.8555C12.9616 18.8596 13.0999 18.8693 13.2344 18.8857C13.3688 18.8981 13.4927 18.915 13.6064 18.9355C13.7203 18.952 13.8156 18.9724 13.8906 18.9971C13.8751 18.8944 13.8606 18.7707 13.8477 18.627C13.8373 18.4791 13.832 18.327 13.832 18.1709C13.832 18.0272 13.8386 17.8875 13.8516 17.752C13.8645 17.6123 13.8777 17.4931 13.8906 17.3945C13.7614 17.3945 13.6497 17.3803 13.5566 17.3516C13.4635 17.3228 13.3853 17.2757 13.3232 17.21C13.2638 17.1402 13.2185 17.0476 13.1875 16.9326C13.159 16.8135 13.1455 16.6649 13.1455 16.4883C13.1455 16.2009 13.1468 15.9053 13.1494 15.6016C13.152 15.2935 13.1563 14.9991 13.1641 14.7197C13.1744 14.4406 13.1876 14.186 13.2031 13.9561C13.2212 13.7261 13.2437 13.5455 13.2695 13.4141C13.3264 13.4183 13.3906 13.486 13.4629 13.6172C13.5353 13.7486 13.6096 13.9149 13.6846 14.1162C13.7596 14.3133 13.8316 14.5332 13.9014 14.7754C13.9738 15.0178 14.0388 15.2543 14.0957 15.4844C14.1526 15.7103 14.1991 15.9157 14.2354 16.1006C14.2716 16.2854 14.2913 16.4188 14.2939 16.501C14.3663 16.4641 14.4477 16.4391 14.5381 16.4268C14.6285 16.4144 14.7204 16.4082 14.8135 16.4082C14.9065 16.4082 14.9985 16.4145 15.0889 16.4268C15.1794 16.4391 15.2615 16.464 15.334 16.501C15.3366 16.4147 15.3554 16.2768 15.3916 16.0879C15.4278 15.899 15.4744 15.6872 15.5312 15.4531C15.5881 15.219 15.6532 14.9788 15.7256 14.7324C15.798 14.486 15.8723 14.2601 15.9473 14.0547C16.0248 13.8495 16.0982 13.6812 16.168 13.5498C16.2404 13.4183 16.3054 13.3525 16.3623 13.3525C16.3933 13.4839 16.4201 13.6666 16.4434 13.9004C16.4692 14.1304 16.4903 14.3874 16.5059 14.6709C16.524 14.9501 16.5362 15.2438 16.5439 15.5518C16.5543 15.8599 16.5596 16.156 16.5596 16.4395C16.5596 16.7928 16.5008 17.0418 16.3818 17.1855C16.2628 17.3252 16.0731 17.3945 15.8145 17.3945C15.8274 17.4931 15.8406 17.6123 15.8535 17.752C15.8664 17.8875 15.873 18.0272 15.873 18.1709C15.873 18.327 15.8664 18.4791 15.8535 18.627C15.8432 18.7707 15.83 18.8944 15.8145 18.9971C15.8869 18.9724 15.9809 18.952 16.0947 18.9355C16.2085 18.915 16.3324 18.8981 16.4668 18.8857C16.6013 18.8693 16.7396 18.8596 16.8818 18.8555C17.0266 18.8473 17.1651 18.8428 17.2969 18.8428C17.4288 18.8428 17.5667 18.8473 17.709 18.8555C17.8537 18.8596 17.9935 18.8693 18.1279 18.8857C18.2623 18.8981 18.3863 18.915 18.5 18.9355C18.6138 18.952 18.7082 18.9724 18.7832 18.9971C18.7677 18.8944 18.7541 18.7707 18.7412 18.627C18.7309 18.4791 18.7256 18.327 18.7256 18.1709C18.7256 18.0272 18.7322 17.8875 18.7451 17.752C18.758 17.6123 18.7703 17.4931 18.7832 17.3945C18.6617 17.3945 18.5566 17.3803 18.4688 17.3516C18.3835 17.3187 18.3114 17.267 18.252 17.1973C18.195 17.1274 18.1498 17.0349 18.1162 16.9199C18.0826 16.8049 18.0562 16.6608 18.0381 16.4883C18.02 16.3242 17.9972 16.1601 17.9688 15.9961C17.9429 15.8318 17.9297 15.6486 17.9297 15.4473C17.9297 15.164 17.9522 14.9362 17.9961 14.7637C18.0401 14.587 18.0919 14.4883 18.1514 14.4678C18.0996 14.4431 18.0535 14.3773 18.0146 14.2705C17.9758 14.1637 17.9438 14.0258 17.918 13.8574C17.8921 13.6849 17.8733 13.4857 17.8604 13.2598C17.85 13.0339 17.8447 12.7875 17.8447 12.5205C17.8447 12.3564 17.861 12.2228 17.8945 12.1201C17.9281 12.0177 17.9735 11.9374 18.0303 11.8799C18.0872 11.8183 18.1535 11.7764 18.2285 11.7559C18.306 11.7354 18.3888 11.7256 18.4766 11.7256H18.5508C18.5379 11.627 18.5246 11.514 18.5117 11.3867C18.4988 11.2553 18.4922 11.1174 18.4922 10.9736C18.4922 10.8217 18.4975 10.6677 18.5078 10.5117C18.5207 10.3556 18.5353 10.2257 18.5508 10.123ZM23.626 10.123C23.5665 10.1641 23.472 10.1988 23.3428 10.2275C23.2135 10.2563 23.0619 10.2795 22.8887 10.2959C22.7154 10.3123 22.5252 10.3248 22.3184 10.333C22.1142 10.3371 21.9049 10.3389 21.6904 10.3389C21.6051 10.3389 21.4961 10.3371 21.3643 10.333C21.235 10.3289 21.0952 10.3227 20.9453 10.3145C20.7954 10.3021 20.6424 10.2897 20.4873 10.2773C20.3322 10.265 20.1872 10.2525 20.0527 10.2402C19.9208 10.2238 19.8053 10.2051 19.707 10.1846C19.6088 10.164 19.5424 10.1436 19.5088 10.123C19.5243 10.2257 19.5375 10.3512 19.5479 10.499C19.5608 10.6428 19.5674 10.7931 19.5674 10.9492C19.5674 11.0929 19.5608 11.2345 19.5479 11.374C19.5349 11.5096 19.5217 11.627 19.5088 11.7256C19.6251 11.7256 19.7275 11.7398 19.8154 11.7686C19.9033 11.7973 19.9776 11.8462 20.0371 11.916C20.0966 11.9817 20.1405 12.0744 20.1689 12.1934C20.2 12.3083 20.2158 12.4544 20.2158 12.6309C20.2158 13.0087 20.2105 13.3129 20.2002 13.543C20.1899 13.7688 20.1727 13.9477 20.1494 14.0791C20.1287 14.2064 20.102 14.2972 20.0684 14.3506C20.0347 14.404 19.9938 14.4431 19.9473 14.4678C19.9912 14.4883 20.0308 14.5417 20.0645 14.6279C20.098 14.7101 20.1248 14.8312 20.1455 14.9912C20.1688 15.1514 20.1859 15.3551 20.1963 15.6016C20.2092 15.8479 20.2158 16.1435 20.2158 16.4883C20.2158 16.6649 20.2 16.8135 20.1689 16.9326C20.1405 17.0476 20.0966 17.1402 20.0371 17.21C19.9776 17.2757 19.9034 17.3228 19.8154 17.3516C19.7275 17.3803 19.6251 17.3945 19.5088 17.3945C19.5217 17.4931 19.5349 17.6123 19.5479 17.752C19.5608 17.8875 19.5674 18.0272 19.5674 18.1709C19.5674 18.327 19.5608 18.4791 19.5479 18.627C19.5375 18.7707 19.5243 18.8944 19.5088 18.9971C19.5295 18.9848 19.5867 18.9723 19.6797 18.96C19.7728 18.9476 19.8856 18.9352 20.0176 18.9229C20.1521 18.9105 20.2983 18.8998 20.4561 18.8916C20.6164 18.8834 20.7745 18.8754 20.9297 18.8672C21.0848 18.859 21.2298 18.8527 21.3643 18.8486C21.4987 18.8445 21.6077 18.8428 21.6904 18.8428C21.9049 18.8428 22.1181 18.8473 22.3301 18.8555C22.5447 18.8596 22.7401 18.8693 22.916 18.8857C23.0945 18.8981 23.2446 18.915 23.3662 18.9355C23.4878 18.952 23.5647 18.9724 23.5957 18.9971C23.6086 18.9026 23.642 18.8056 23.6963 18.707C23.7506 18.6045 23.8174 18.5037 23.8975 18.4053C23.9777 18.3067 24.0664 18.2142 24.1621 18.1279C24.2604 18.0417 24.3588 17.9651 24.457 17.8994C24.5578 17.8297 24.655 17.7744 24.748 17.7334C24.8436 17.6924 24.9276 17.6701 25 17.666C24.9793 17.6167 24.9608 17.5402 24.9453 17.4375C24.9324 17.3349 24.9215 17.2218 24.9111 17.0986C24.9008 16.9713 24.8929 16.8396 24.8877 16.7041C24.8851 16.5645 24.8838 16.4327 24.8838 16.3096C24.8838 16.1908 24.8851 16.0719 24.8877 15.9531C24.8929 15.834 24.8995 15.7201 24.9072 15.6133C24.9176 15.5067 24.9298 15.4103 24.9453 15.3242C24.9608 15.2379 24.9793 15.1677 25 15.1143C24.8577 15.0814 24.7049 15.0245 24.542 14.9424C24.379 14.8561 24.2276 14.7467 24.0879 14.6152C24.1835 14.4798 24.286 14.3632 24.3945 14.2646C24.5032 14.1661 24.6121 14.1002 24.7207 14.0674C24.6768 13.9483 24.646 13.7755 24.6279 13.5498C24.6124 13.3198 24.6045 13.0725 24.6045 12.8096C24.6045 12.6865 24.6071 12.5573 24.6123 12.4219C24.6175 12.2863 24.6244 12.1547 24.6348 12.0273C24.6451 11.9 24.657 11.7871 24.6699 11.6885C24.6854 11.5858 24.7026 11.5075 24.7207 11.4541C24.6638 11.45 24.5975 11.4278 24.5225 11.3867C24.4475 11.3415 24.3702 11.2837 24.29 11.2139C24.2098 11.1399 24.1303 11.0582 24.0527 10.9678C23.9752 10.8775 23.9045 10.7848 23.8398 10.6904C23.7778 10.5918 23.7273 10.4949 23.6885 10.4004C23.6497 10.3018 23.6286 10.2093 23.626 10.123ZM22.6328 15.1143C22.7957 15.1143 22.9248 15.1499 23.0205 15.2197C23.1162 15.2896 23.1891 15.382 23.2383 15.4971C23.2899 15.6119 23.322 15.7431 23.335 15.8906C23.3505 16.0385 23.3584 16.1933 23.3584 16.3535C23.3584 16.5341 23.3452 16.7024 23.3193 16.8584C23.2961 17.0145 23.2548 17.1506 23.1953 17.2656C23.1359 17.3803 23.057 17.4723 22.959 17.542C22.8633 17.6077 22.7412 17.6406 22.5938 17.6406C22.4361 17.6406 22.2897 17.6309 22.1553 17.6104C22.0235 17.5857 21.8956 17.5465 21.7715 17.4932C21.7637 17.3165 21.7558 17.1253 21.748 16.9199C21.7429 16.7105 21.7402 16.4987 21.7402 16.2852C21.7402 16.1005 21.7429 15.9241 21.748 15.7559C21.7532 15.5874 21.7625 15.4326 21.7754 15.293C21.8685 15.2273 21.9814 15.1828 22.1133 15.1582C22.2452 15.1295 22.4183 15.1143 22.6328 15.1143ZM22.4385 11.6025C22.5806 11.6025 22.6923 11.6328 22.7725 11.6943C22.8527 11.756 22.9137 11.8405 22.9551 11.9473C22.9965 12.05 23.0219 12.1691 23.0322 12.3047C23.0426 12.4361 23.0479 12.574 23.0479 12.7178C23.0478 12.8861 23.0373 13.0446 23.0166 13.1924C22.9985 13.336 22.9651 13.4617 22.916 13.5684C22.8695 13.6748 22.8038 13.7588 22.7188 13.8203C22.636 13.8819 22.5296 13.913 22.4004 13.9131C22.3176 13.9131 22.2447 13.9113 22.1826 13.9072C22.1206 13.9031 22.0647 13.8969 22.0156 13.8887C21.9691 13.8764 21.9265 13.8639 21.8877 13.8516C21.8515 13.8351 21.8155 13.8164 21.7793 13.7959C21.7689 13.6234 21.7597 13.4322 21.752 13.2227C21.7468 13.0092 21.7441 12.7937 21.7441 12.5762C21.7441 12.4326 21.7455 12.2926 21.748 12.1572C21.7532 12.0176 21.7611 11.8894 21.7715 11.7744C21.8672 11.7087 21.9735 11.6633 22.0898 11.6387C22.206 11.6141 22.3223 11.6026 22.4385 11.6025Z" fill="url(#paint0_linear_107_936)"/>
<defs>
<linearGradient id="paint0_linear_107_936" x1="2.5" y1="2.5" x2="32.631" y2="13.8751" gradientUnits="userSpaceOnUse">
<stop stop-color="#9333CD"/>
<stop offset="1" stop-color="#5B38AD"/>
</linearGradient>
</defs>
</svg>
