<svg width="30" height="30" viewBox="0 0 30 30" fill="none" xmlns="http://www.w3.org/2000/svg">
<path d="M20.2375 2.5H9.7625C5.2125 2.5 2.5 5.2125 2.5 9.7625V20.225C2.5 24.7875 5.2125 27.5 9.7625 27.5H20.225C24.775 27.5 27.4875 24.7875 27.4875 20.2375V9.7625C27.5 5.2125 24.7875 2.5 20.2375 2.5ZM9.5375 22.6875C9.5375 23.2 9.1125 23.625 8.6 23.625C8.0875 23.625 7.6625 23.2 7.6625 22.6875V20.1C7.6625 19.5875 8.0875 19.1625 8.6 19.1625C9.1125 19.1625 9.5375 19.5875 9.5375 20.1V22.6875ZM15.9375 22.6875C15.9375 23.2 15.5125 23.625 15 23.625C14.4875 23.625 14.0625 23.2 14.0625 22.6875V17.5C14.0625 16.9875 14.4875 16.5625 15 16.5625C15.5125 16.5625 15.9375 16.9875 15.9375 17.5V22.6875ZM22.3375 22.6875C22.3375 23.2 21.9125 23.625 21.4 23.625C20.8875 23.625 20.4625 23.2 20.4625 22.6875V14.9125C20.4625 14.4 20.8875 13.975 21.4 13.975C21.9125 13.975 22.3375 14.4 22.3375 14.9125V22.6875ZM22.3375 10.9625C22.3375 11.475 21.9125 11.9 21.4 11.9C20.8875 11.9 20.4625 11.475 20.4625 10.9625V9.75C17.275 13.025 13.2875 15.3375 8.825 16.45C8.75 16.475 8.675 16.475 8.6 16.475C8.175 16.475 7.8 16.1875 7.6875 15.7625C7.5625 15.2625 7.8625 14.75 8.375 14.625C12.5875 13.575 16.3375 11.3625 19.3125 8.2375H17.75C17.2375 8.2375 16.8125 7.8125 16.8125 7.3C16.8125 6.7875 17.2375 6.3625 17.75 6.3625H21.4125C21.4625 6.3625 21.5 6.3875 21.55 6.3875C21.6125 6.4 21.675 6.4 21.7375 6.425C21.8 6.45 21.85 6.4875 21.9125 6.525C21.95 6.55 21.9875 6.5625 22.025 6.5875C22.0375 6.6 22.0375 6.6125 22.05 6.6125C22.1 6.6625 22.1375 6.7125 22.175 6.7625C22.2125 6.8125 22.25 6.85 22.2625 6.9C22.2875 6.95 22.2875 7 22.3 7.0625C22.3125 7.125 22.3375 7.1875 22.3375 7.2625C22.3375 7.275 22.35 7.2875 22.35 7.3V10.9625H22.3375Z" fill="url(#paint0_linear_107_811)"/>
<defs>
<linearGradient id="paint0_linear_107_811" x1="2.5" y1="2.5" x2="32.6312" y2="13.8753" gradientUnits="userSpaceOnUse">
<stop stop-color="#9333CD"/>
<stop offset="1" stop-color="#5B38AD"/>
</linearGradient>
</defs>
</svg>
