<svg width="121" height="130" viewBox="0 0 121 130" fill="none" xmlns="http://www.w3.org/2000/svg">
<mask id="mask0_103_2078" style="mask-type:luminance" maskUnits="userSpaceOnUse" x="23" y="76" width="47" height="54">
<path d="M23.4455 114.836L28.3117 115.718L30.7237 116.152L38.8031 117.615L44.6392 124.219L46.25 126.04L49.7457 130L69.5563 86.4193L66.4063 84.7157L64.4244 83.6446L55.8432 79.0019L53.8613 77.9266L50.3572 76.0333L23.4455 114.836Z" fill="white"/>
</mask>
<g mask="url(#mask0_103_2078)">
<path d="M69.5563 76.0333H23.4455V130H69.5563V76.0333Z" fill="url(#paint0_linear_103_2078)"/>
</g>
<path d="M55.8432 79.0019L30.7237 116.152L28.3116 115.713L53.8613 77.9266L55.8432 79.0019Z" fill="#BDC1C2"/>
<path d="M46.25 126.04L44.6392 124.219L64.4244 83.6447L66.4021 84.7157L46.25 126.04Z" fill="#BDC1C2"/>
<mask id="mask1_103_2078" style="mask-type:luminance" maskUnits="userSpaceOnUse" x="51" y="75" width="47" height="55">
<path d="M67.2876 77.4248L65.3015 78.5001L56.7203 83.1428L54.7426 84.2139L51.5927 85.9175L71.399 129.498L74.8989 125.539L76.5098 123.717L82.3458 117.113L90.421 115.65L92.8373 115.212L97.7034 114.335L70.7918 75.5315L67.2876 77.4248Z" fill="white"/>
</mask>
<g mask="url(#mask1_103_2078)">
<path d="M97.7034 75.5315H51.5927V129.502H97.7034V75.5315Z" fill="url(#paint1_linear_103_2078)"/>
</g>
<path d="M65.3015 78.5001L90.421 115.65L92.8373 115.212L67.2876 77.4248L65.3015 78.5001Z" fill="#BDC1C2"/>
<path d="M74.899 125.539L76.5098 123.717L56.7203 83.1428L54.7426 84.2139L74.899 125.539Z" fill="#BDC1C2"/>
<g style="mix-blend-mode:multiply">
<mask id="mask2_103_2078" style="mask-type:luminance" maskUnits="userSpaceOnUse" x="10" y="0" width="103" height="102">
<path d="M112.045 0.716873H10.9258V101.558H112.045V0.716873Z" fill="white"/>
</mask>
<g mask="url(#mask2_103_2078)">
<path d="M112.041 51.1372L108.431 54.6583L111.484 58.6727L107.389 61.616L109.81 66.0437L105.319 68.3376L107.044 73.0773L102.262 74.6755L103.261 79.6218L98.2896 80.4862L98.5468 85.5253L93.5035 85.6476L93.006 90.6656L88.0048 90.0373L86.7693 94.9288L81.9115 93.5625L79.9592 98.2137L75.3628 96.1348L72.7358 100.436L68.5021 97.695L65.2594 101.558L61.4811 98.2137L57.7071 101.558L54.4643 97.695L50.2307 100.436L47.6036 96.1348L43.0073 98.2137L41.0549 93.5625L36.1971 94.9288L34.9616 90.0373L29.9605 90.6656L29.4629 85.6476L24.4196 85.5253L24.6726 80.4862L19.7052 79.6176L20.7046 74.6755L15.9227 73.0773L17.6474 68.3376L13.1565 66.0437L15.5769 61.616L11.4824 58.6727L14.5354 54.6583L10.9258 51.1372L14.5354 47.6162L11.4824 43.6018L15.5769 40.6543L13.1565 36.2308L17.6474 33.9327L15.9227 29.193L20.7046 27.5948L19.7052 22.6527L24.6768 21.784L24.4196 16.7449L29.4629 16.6269L29.9605 11.6047L34.9616 12.233L36.1971 7.34568L41.0549 8.71193L43.0073 4.06079L47.6036 6.13967L50.2307 1.83431L54.4643 4.57945L57.7071 0.716858L61.4811 4.06079L65.2594 0.716858L68.5021 4.57945L72.7358 1.83431L75.3628 6.13967L79.9592 4.06079L81.9115 8.71193L86.7693 7.34568L88.0048 12.233L93.006 11.6047L93.5035 16.6269L98.5468 16.7449L98.2896 21.784L103.261 22.6527L102.262 27.5948L107.044 29.193L105.319 33.9327L109.81 36.2308L107.389 40.6543L111.484 43.6018L108.431 47.6162L112.041 51.1372Z" fill="#BDBDBD"/>
</g>
</g>
<mask id="mask3_103_2078" style="mask-type:luminance" maskUnits="userSpaceOnUse" x="10" y="0" width="102" height="101">
<path d="M60.7641 3.33972L56.9901 0L53.7431 3.8626L49.5137 1.11745L46.8866 5.42282L42.2903 3.34394L40.3379 7.99086L35.4801 6.62462L34.2446 11.5161L29.2393 10.8878L28.7459 15.91L23.7026 16.0281L23.9556 21.0672L18.9882 21.9358L19.9876 26.8779L15.2057 28.4761L16.9304 33.2158L12.4395 35.514L14.8599 39.9374L10.7654 42.8849L13.8184 46.8993L10.2088 50.4162L13.8184 53.9372L10.7654 57.9516L14.8599 60.8992L12.4395 65.3226L16.9304 67.6208L15.2057 72.3604L19.9876 73.9586L18.9882 78.9007L23.9556 79.7694L23.7026 84.8085L28.7459 84.9307L29.2393 89.9488L34.2446 89.3205L35.4801 94.2119L40.3379 92.8457L42.2903 97.4926L46.8866 95.4179L49.5137 99.7191L53.7431 96.974L56.9901 100.837L60.7641 97.4968L64.5424 100.837L67.7851 96.974L72.0188 99.7191L74.6459 95.4179L79.2422 97.4926L81.1946 92.8457L86.0481 94.2119L87.2836 89.3205L92.289 89.9488L92.7866 84.9307L97.8257 84.8085L97.5726 79.7694L102.544 78.9007L101.545 73.9586L106.327 72.3604L104.602 67.6208L109.089 65.3226L106.673 60.8992L110.767 57.9516L107.714 53.9372L111.324 50.4162L107.714 46.8993L110.767 42.8849L106.673 39.9374L109.089 35.514L104.602 33.2158L106.327 28.4761L101.545 26.8779L102.544 21.9358L97.5726 21.0672L97.8257 16.0281L92.7866 15.91L92.289 10.8878L87.2836 11.5161L86.0481 6.62882L81.1946 7.99086L79.2422 3.34394L74.6459 5.42282L72.0188 1.11745L67.7851 3.8626L64.5424 0L60.7641 3.33972Z" fill="white"/>
</mask>
<g mask="url(#mask3_103_2078)">
<path d="M111.294 -2.0685L8.16785 0.0376587L10.2684 102.889L113.394 100.783L111.294 -2.0685Z" fill="url(#paint2_linear_103_2078)"/>
</g>
<g style="mix-blend-mode:multiply">
<mask id="mask4_103_2078" style="mask-type:luminance" maskUnits="userSpaceOnUse" x="17" y="7" width="89" height="89">
<path d="M105.871 7.16856H17.5124V95.5276H105.871V7.16856Z" fill="white"/>
</mask>
<g mask="url(#mask4_103_2078)">
<path d="M105.871 51.3438C105.872 60.0819 103.282 68.624 98.4278 75.8898C93.5738 83.1556 86.6742 88.8189 78.6015 92.1634C70.5289 95.5079 61.6457 96.3834 53.0754 94.6792C44.5052 92.975 36.6328 88.7676 30.4537 82.5892C24.2747 76.4107 20.0666 68.5387 18.3616 59.9686C16.6565 51.3985 17.5312 42.5153 20.8749 34.4423C24.2186 26.3693 29.8812 19.4691 37.1466 14.6144C44.412 9.75974 52.9538 7.16855 61.6919 7.16855C67.4934 7.16799 73.2382 8.31022 78.5983 10.53C83.9584 12.7498 88.8287 16.0036 92.9312 20.1057C97.0337 24.2078 100.288 29.0778 102.508 34.4377C104.729 39.7976 105.871 45.5423 105.871 51.3438Z" fill="#BDC1C2"/>
</g>
</g>
<path d="M104.944 50.4077C104.946 59.1469 102.357 67.6905 97.5031 74.9578C92.6494 82.2251 85.7494 87.8896 77.6759 91.2349C69.6024 94.5802 60.7181 95.4559 52.1468 93.7513C43.5755 92.0467 35.7023 87.8383 29.5231 81.6585C23.3439 75.4787 19.1363 67.6051 17.4325 59.0337C15.7287 50.4623 16.6053 41.5781 19.9513 33.5049C23.2974 25.4317 28.9626 18.5322 36.2304 13.6792C43.4982 8.82612 52.042 6.23756 60.7811 6.24089C72.4931 6.24536 83.7241 10.9002 92.0054 19.1823C100.287 27.4643 104.94 38.6957 104.944 50.4077Z" fill="#E2E4E4"/>
<path d="M102.742 50.4077C102.745 58.7115 100.285 66.8295 95.6728 73.7348C91.0609 80.6402 84.5047 86.0226 76.8334 89.2013C69.1621 92.38 60.7204 93.2121 52.5761 91.5924C44.4318 89.9727 36.9508 85.974 31.0795 80.1021C25.2081 74.2301 21.2101 66.7487 19.5913 58.6043C17.9724 50.4598 18.8054 42.0182 21.9848 34.3472C25.1643 26.6762 30.5474 20.1205 37.4532 15.5094C44.359 10.8982 52.4772 8.43873 60.781 8.44207C71.9092 8.44654 82.5803 12.8695 90.4488 20.7387C98.3172 28.608 102.739 39.2795 102.742 50.4077Z" fill="#0266FB"/>
<path d="M95.1311 51.3903C95.1311 57.9958 93.1723 64.4529 89.5024 69.9452C85.8325 75.4374 80.6163 79.718 74.5136 82.2456C68.4108 84.7732 61.6955 85.4343 55.217 84.1454C48.7385 82.8564 42.7877 79.6752 38.1172 75.0041C33.4467 70.333 30.2662 64.3818 28.9781 57.9031C27.6899 51.4244 28.3519 44.7093 30.8803 38.6068C33.4087 32.5044 37.6899 27.2887 43.1826 23.6195C48.6753 19.9503 55.1327 17.9923 61.7382 17.9931C66.1238 17.9931 70.4664 18.857 74.5181 20.5354C78.5698 22.2138 82.2512 24.6739 85.3521 27.7752C88.4529 30.8764 90.9125 34.5581 92.5905 38.61C94.2684 42.6619 95.1317 47.0047 95.1311 51.3903Z" fill="#F0F0F0"/>
<mask id="mask5_103_2078" style="mask-type:luminance" maskUnits="userSpaceOnUse" x="27" y="17" width="68" height="67">
<path d="M27.3713 50.4077C27.3688 57.0131 29.325 63.4708 32.9927 68.9643C36.6603 74.4579 41.8746 78.7404 47.9762 81.2705C54.0778 83.8005 60.7926 84.4645 67.2715 83.1783C73.7504 81.8921 79.7024 78.7136 84.3748 74.0447C89.0472 69.3758 92.2303 63.4262 93.5214 56.9483C94.8124 50.4703 94.1536 43.755 91.6282 37.6516C89.1027 31.5481 84.8241 26.3305 79.3334 22.6587C73.8426 18.9869 67.3864 17.0258 60.7811 17.0233C56.3951 17.0211 52.0517 17.8829 47.9989 19.5595C43.9461 21.2361 40.2633 23.6947 37.1608 26.7949C34.0583 29.895 31.5969 33.576 29.9172 37.6275C28.2375 41.6791 27.3724 46.0218 27.3713 50.4077Z" fill="white"/>
</mask>
<g mask="url(#mask5_103_2078)">
<path d="M94.1592 16.2024L26.5688 17.0282L27.3946 84.6186L94.985 83.7927L94.1592 16.2024Z" fill="url(#paint3_linear_103_2078)"/>
</g>
<g style="mix-blend-mode:multiply">
<mask id="mask6_103_2078" style="mask-type:luminance" maskUnits="userSpaceOnUse" x="27" y="17" width="59" height="58">
<path d="M85.1584 17.0233H27.3712V74.8104H85.1584V17.0233Z" fill="white"/>
</mask>
<g mask="url(#mask6_103_2078)">
<path d="M28.9568 52.0017C28.9567 45.4923 30.8591 39.1249 34.43 33.6824C38.0009 28.24 43.0846 23.9599 49.0559 21.3685C55.0272 18.7771 61.6257 17.9875 68.0398 19.0966C74.454 20.2058 80.4041 23.1655 85.1584 27.6117C82.0967 24.3486 78.4105 21.7341 74.3186 19.9235C70.2267 18.113 65.8127 17.1432 61.3387 17.0719C56.8648 17.0006 52.4221 17.8292 48.2746 19.5084C44.1271 21.1876 40.3594 23.6833 37.1952 26.8472C34.0311 30.011 31.5351 33.7785 29.8555 37.9258C28.1759 42.0732 27.3469 46.5158 27.4178 50.9898C27.4887 55.4638 28.4581 59.8779 30.2683 63.9699C32.0785 68.0619 34.6927 71.7484 37.9555 74.8104C32.1615 68.6304 28.9432 60.4729 28.9568 52.0017Z" fill="#BDC1C2"/>
</g>
</g>
<path d="M60.4184 11.6299L61.1142 10.1962L61.831 11.6215L63.4081 11.845L62.2738 12.9625L62.5479 14.5353L61.1353 13.7974L59.7268 14.548L59.9883 12.9751L58.8413 11.8661L60.4184 11.6299Z" fill="#023B96"/>
<path d="M50.3108 13.1438L50.6144 11.5793L51.6728 12.7727L53.2541 12.5787L52.4487 13.9534L53.1234 15.3998L51.5632 15.0582L50.3951 16.1461L50.2433 14.5564L48.8475 13.7847L50.3108 13.1438Z" fill="#023B96"/>
<path d="M40.9368 17.2256L40.8271 15.6359L42.1554 16.5172L43.6355 15.9184L43.2096 17.4534L44.2385 18.6762L42.6446 18.7479L41.797 20.1015L41.2362 18.6088L39.6886 18.2208L40.9368 17.2256Z" fill="#023B96"/>
<path d="M32.9417 23.5972L32.423 22.0876L33.9369 22.5936L35.2103 21.6322L35.1977 23.2262L36.5049 24.1412L34.9826 24.6219L34.5188 26.1484L33.5911 24.8496L31.9929 24.8791L32.9417 23.5972Z" fill="#023B96"/>
<path d="M26.8695 31.8158L25.9755 30.4917L27.5653 30.5887L28.5478 29.3321L28.9526 30.8755L30.4496 31.4194L29.1044 32.2797L29.0496 33.8736L27.8183 32.8616L26.2834 33.3001L26.8695 31.8158Z" fill="#023B96"/>
<path d="M23.1249 41.3289L21.9231 40.2832L23.4875 39.9627L24.1074 38.4952L24.8959 39.8826L26.4857 40.0217L25.4062 41.1982L25.7688 42.75L24.314 42.0922L22.9478 42.9145L23.1249 41.3289Z" fill="#023B96"/>
<path d="M21.978 51.483L20.5443 50.783L21.9696 50.0704L22.1889 48.4933L23.3105 49.6276L24.8834 49.3535L24.1455 50.7661L24.8961 52.1746L23.3232 51.9131L22.2142 53.0643L21.978 51.483Z" fill="#023B96"/>
<path d="M23.4919 61.5907L21.9274 61.2871L23.1208 60.2287L22.9268 58.6474L24.3015 59.457L25.7479 58.7823L25.4021 60.3383L26.49 61.5064L24.9045 61.6582L24.1286 63.0539L23.4919 61.5907Z" fill="#023B96"/>
<path d="M27.5737 70.9647L25.984 71.0743L26.8611 69.746L26.2665 68.2659L27.8015 68.6918L29.0243 67.6629L29.096 69.2568L30.4496 70.1044L28.9569 70.6653L28.5689 72.2128L27.5737 70.9647Z" fill="#023B96"/>
<path d="M33.9411 78.9597L32.4357 79.4784L32.9375 77.9645L31.9803 76.6911L33.5742 76.7037L34.4893 75.3965L34.97 76.9188L36.4965 77.3826L35.1977 78.3103L35.2272 79.9085L33.9411 78.9597Z" fill="#023B96"/>
<path d="M42.1638 85.0319L40.8397 85.9259L40.9367 84.3362L39.6801 83.3536L41.2235 82.9488L41.7674 81.4519L42.6277 82.797L44.2216 82.8518L43.2054 84.0831L43.6481 85.6181L42.1638 85.0319Z" fill="#023B96"/>
<path d="M51.6769 88.7765L50.6269 89.9782L50.3107 88.4138L48.839 87.7939L50.2263 87.0054L50.3655 85.4157L51.5462 86.4952L53.098 86.1325L52.4401 87.5873L53.2624 88.9536L51.6769 88.7765Z" fill="#023B96"/>
<path d="M61.831 89.9234L61.131 91.3571L60.4184 89.9319L58.8413 89.7126L59.9756 88.5909L59.6973 87.0181L61.1142 87.756L62.5226 87.0054L62.2611 88.5783L63.4081 89.6873L61.831 89.9234Z" fill="#023B96"/>
<path d="M71.9387 88.4096L71.6351 89.974L70.5767 88.7807L68.9954 88.9746L69.8008 87.6L69.1261 86.1536L70.6863 86.4994L71.8501 85.4114L72.0062 86.997L73.4019 87.7686L71.9387 88.4096Z" fill="#023B96"/>
<path d="M81.3127 84.3277L81.4224 85.9175L80.0899 85.0404L78.614 85.6349L79.0357 84.1L78.011 82.8771L79.6049 82.8054L80.4525 81.4519L81.0091 82.9446L82.5609 83.3326L81.3127 84.3277Z" fill="#023B96"/>
<path d="M89.3078 77.9603L89.8264 79.4657L88.3126 78.9639L87.0391 79.9212L87.0518 78.3272L85.7446 77.4122L87.2668 76.9314L87.7307 75.405L88.6584 76.7037L90.2523 76.6742L89.3078 77.9603Z" fill="#023B96"/>
<path d="M95.38 69.7376L96.274 71.0616L94.68 70.9647L93.6975 72.2213L93.2969 70.6779L91.7999 70.1339L93.1451 69.2737L93.1999 67.6798L94.4312 68.6918L95.9661 68.2533L95.38 69.7376Z" fill="#023B96"/>
<path d="M99.1203 60.2244L100.326 61.2744L98.7619 61.5907L98.142 63.0624L97.3535 61.6708L95.7637 61.5359L96.839 60.3552L96.4806 58.8034L97.9354 59.4612L99.3016 58.6389L99.1203 60.2244Z" fill="#023B96"/>
<path d="M100.272 50.0704L101.705 50.7704L100.28 51.483L100.056 53.0643L98.939 51.9258L97.3662 52.2041L98.1041 50.7872L97.3535 49.3788L98.9264 49.6403L100.035 48.4933L100.272 50.0704Z" fill="#023B96"/>
<path d="M98.7534 39.9627L100.322 40.2663L99.1287 41.3247L99.3227 42.906L97.948 42.1006L96.5016 42.7753L96.8432 41.2151L95.7552 40.047L97.345 39.8952L98.1167 38.4994L98.7534 39.9627Z" fill="#023B96"/>
<path d="M94.6758 30.5887L96.2655 30.4791L95.3842 31.8116L95.983 33.2875L94.4481 32.8658L93.2252 33.8905L93.1535 32.2965L91.7999 31.4532L93.2927 30.8923L93.6806 29.3448L94.6758 30.5887Z" fill="#023B96"/>
<path d="M88.3042 22.5936L89.8138 22.075L89.3078 23.5888L90.2692 24.8623L88.6752 24.8496L87.7602 26.1568L87.2795 24.6388L85.753 24.1707L87.0518 23.243L87.0222 21.6491L88.3042 22.5936Z" fill="#023B96"/>
<path d="M80.0856 16.5215L81.4097 15.6275L81.3127 17.2214L82.5693 18.204L81.0259 18.6046L80.482 20.1015L79.6217 18.7564L78.0278 18.7015L79.0398 17.4702L78.6013 15.9353L80.0856 16.5215Z" fill="#023B96"/>
<path d="M70.5725 12.7811L71.6183 11.5751L71.9388 13.1396L73.4062 13.7636L72.0189 14.548L71.8797 16.1377L70.7032 15.0624L69.1515 15.4208L69.8093 13.9703L68.987 12.5998L70.5725 12.7811Z" fill="#023B96"/>
<path d="M80.6591 52.592L62.763 28.2695C62.6686 28.116 62.5366 27.9892 62.3793 27.9013C62.2221 27.8133 62.0449 27.7672 61.8648 27.7672C61.6846 27.7672 61.5075 27.8133 61.3502 27.9013C61.193 27.9892 61.0609 28.116 60.9666 28.2695L42.7331 52.5794C41.9193 53.6673 42.4843 55.5311 43.6271 55.5311H52.9673V82.5566C56.9817 83.7416 63.5473 84.8211 70.4207 82.3838V55.548H79.7567C80.891 55.548 81.4434 53.6799 80.6549 52.5962" fill="#003994"/>
<path d="M79.4404 54.8607L62.7334 32.1574C62.6463 32.0115 62.5227 31.8907 62.3749 31.8069C62.2271 31.723 62.06 31.6789 61.8901 31.6789C61.7201 31.6789 61.5531 31.723 61.4053 31.8069C61.2575 31.8907 61.1339 32.0115 61.0467 32.1574L44.0277 54.8565C43.2644 55.8727 43.7958 57.6311 44.871 57.6311H53.5914V82.8603C57.3401 83.9651 63.4672 84.9687 69.8809 82.6958V57.6227H78.6013C79.6597 57.6227 80.191 55.8769 79.4447 54.8607" fill="#ABCDE4"/>
<mask id="mask7_103_2078" style="mask-type:luminance" maskUnits="userSpaceOnUse" x="95" y="86" width="26" height="26">
<path d="M95.1902 105.29L115.368 111.054L113.323 100.153L120.82 91.9728L100.643 86.2085L95.1902 105.29Z" fill="white"/>
</mask>
<g mask="url(#mask7_103_2078)">
<path d="M108.183 73.3738L82.7762 98.4462L107.843 123.847L133.25 98.775L108.183 73.3738Z" fill="url(#paint4_linear_103_2078)"/>
</g>
<g opacity="0.3">
<mask id="mask8_103_2078" style="mask-type:luminance" maskUnits="userSpaceOnUse" x="95" y="100" width="9" height="6">
<path d="M103.708 100.234H95.1902V105.365H103.708V100.234Z" fill="white"/>
</mask>
<g mask="url(#mask8_103_2078)">
<path d="M95.1902 105.29L100.25 105.365C100.991 105.376 101.714 105.142 102.308 104.701C102.902 104.26 103.335 103.635 103.54 102.924L103.729 102.253L96.624 100.234L95.1902 105.29Z" fill="black"/>
</g>
</g>
<mask id="mask9_103_2078" style="mask-type:luminance" maskUnits="userSpaceOnUse" x="94" y="100" width="11" height="7">
<path d="M94.6926 106.07L100.25 106.154H100.305C101.123 106.154 101.918 105.887 102.571 105.395C103.223 104.903 103.698 104.212 103.923 103.426L104.117 102.755L103.354 102.536L103.16 103.206C102.986 103.829 102.612 104.376 102.096 104.765C101.58 105.155 100.951 105.364 100.305 105.361H100.263L95.7426 105.294L97.0456 100.74L96.2866 100.52L94.6926 106.07Z" fill="white"/>
</mask>
<g mask="url(#mask9_103_2078)">
<path d="M104.117 100.52H94.6926V106.158H104.117V100.52Z" fill="url(#paint5_linear_103_2078)"/>
</g>
<mask id="mask10_103_2078" style="mask-type:luminance" maskUnits="userSpaceOnUse" x="0" y="86" width="26" height="26">
<path d="M0 92.4409L7.60291 100.52L5.70534 111.45L25.8027 105.416L20.0973 86.4109L0 92.4409Z" fill="white"/>
</mask>
<g mask="url(#mask10_103_2078)">
<path d="M9.45182 73.962L-12.0551 102.266L16.366 123.862L37.8729 95.5583L9.45182 73.962Z" fill="url(#paint6_linear_103_2078)"/>
</g>
<g opacity="0.3">
<mask id="mask11_103_2078" style="mask-type:luminance" maskUnits="userSpaceOnUse" x="17" y="100" width="9" height="6">
<path d="M25.8026 100.381H17.2467V105.564H25.8026V100.381Z" fill="white"/>
</mask>
<g mask="url(#mask11_103_2078)">
<path d="M25.8026 105.416L20.7425 105.559C20.0027 105.579 19.2771 105.354 18.6774 104.921C18.0777 104.487 17.6373 103.869 17.4238 103.16L17.2256 102.494L24.2677 100.385L25.8026 105.416Z" fill="black"/>
</g>
</g>
<mask id="mask12_103_2078" style="mask-type:luminance" maskUnits="userSpaceOnUse" x="16" y="100" width="11" height="7">
<path d="M23.9346 100.891L25.3008 105.433L20.7804 105.559C20.125 105.582 19.4806 105.387 18.9469 105.006C18.4133 104.625 18.0202 104.078 17.8286 103.451L17.6304 102.785L16.8714 103.012L17.0696 103.679C17.3031 104.453 17.7798 105.133 18.429 105.616C19.0783 106.098 19.8658 106.36 20.675 106.361H20.7804L26.3339 106.205L24.6725 100.668L23.9346 100.891Z" fill="white"/>
</mask>
<g mask="url(#mask12_103_2078)">
<path d="M26.3551 100.659H16.8884V106.352H26.3551V100.659Z" fill="url(#paint7_linear_103_2078)"/>
</g>
<mask id="mask13_103_2078" style="mask-type:luminance" maskUnits="userSpaceOnUse" x="11" y="76" width="99" height="27">
<path d="M11.2546 83.9988C13.2955 90.279 15.3393 96.5705 17.3858 102.873C45.4384 93.7606 75.6555 93.7606 103.708 102.873L109.844 83.9988C77.8045 73.5918 43.2937 73.5918 11.2546 83.9988Z" fill="white"/>
</mask>
<g mask="url(#mask13_103_2078)">
<path d="M109.844 76.1934H11.2546V102.873H109.844V76.1934Z" fill="url(#paint8_linear_103_2078)"/>
</g>
<path d="M48.8813 87.8404C48.9404 88.2187 48.9189 88.6053 48.8181 88.9747C48.6831 89.4723 48.4301 89.7506 48.0632 89.8181C47.6799 89.8821 47.288 89.8736 46.9078 89.7928L45.841 89.5524C45.7271 89.7211 45.4193 90.2988 44.9555 91.2855C44.6227 91.8321 44.1735 92.2986 43.6398 92.6517C42.9689 93.1454 42.2722 93.6028 41.5525 94.0222C41.3782 94.1397 41.1859 94.2281 40.9832 94.2836C40.9654 94.2905 40.9462 94.2928 40.9272 94.2906C40.9083 94.2884 40.8901 94.2816 40.8744 94.2708C40.8586 94.26 40.8457 94.2456 40.8368 94.2287C40.8278 94.2119 40.8231 94.1931 40.823 94.174C40.8127 94.1211 40.8127 94.0667 40.823 94.0138C41.3403 93.4824 42.2202 92.5224 43.4627 91.1337C43.8844 90.6698 44.4368 90.0711 45.0609 89.3331C45.1368 88.6036 45.2127 87.8741 45.2844 87.153C45.5205 85.9779 45.9914 85.195 46.697 84.8043C46.9486 84.7774 47.2027 84.8207 47.4312 84.9293C47.6597 85.038 47.8536 85.2078 47.9916 85.4199C48.4895 86.1417 48.7931 86.9797 48.8729 87.853M47.4982 87.7518C47.5044 87.7184 47.5044 87.6841 47.4982 87.6506C47.4533 87.4442 47.3386 87.2595 47.1735 87.1277C47.0247 86.9732 46.8261 86.8761 46.6127 86.8536C46.5541 86.8426 46.4941 86.8426 46.4356 86.8536L46.0982 87.2753C46.2357 87.4431 46.4188 87.5675 46.6253 87.6337C46.9036 87.7446 47.2071 87.7767 47.5024 87.7265" fill="white"/>
<path d="M70.0792 82.0802C69.9591 81.9565 69.8158 81.8576 69.6575 81.7892C69.5985 81.7892 69.4973 81.9284 69.3497 82.1561C69.2351 82.3266 69.1363 82.5073 69.0545 82.6959C69.1376 82.8627 69.2488 83.0139 69.3834 83.1428C69.4963 83.2918 69.6524 83.4023 69.8304 83.4591C69.9611 83.4591 70.1003 83.3157 70.2521 83.0374C70.3369 82.895 70.3981 82.7397 70.4334 82.5778C70.4334 82.4597 70.3027 82.2953 70.0708 82.0886M68.8774 83.0037C68.6767 82.6943 68.4067 82.4359 68.0889 82.2489C67.6925 82.7338 67.5112 83.0459 67.5407 83.1766C67.5702 83.3073 67.6925 83.3874 67.9413 83.5772C68.0801 83.7068 68.2436 83.8072 68.422 83.8723C68.5021 83.8723 68.5949 83.7753 68.7045 83.5561C68.7943 83.4013 68.8543 83.2311 68.8816 83.0543C68.8841 83.0375 68.8841 83.0204 68.8816 83.0037" fill="white"/>
<path d="M74.7682 83.1386C74.6568 83.0124 74.5241 82.9067 74.376 82.8266C74.3128 82.8266 74.1947 82.9657 74.0218 83.2019C73.8951 83.361 73.7863 83.5335 73.6971 83.7163C73.7692 83.8989 73.8751 84.0663 74.0092 84.2097C74.124 84.3679 74.2822 84.4894 74.4646 84.5597C74.6122 84.5597 74.7598 84.4163 74.9158 84.138C75.0038 83.9897 75.0692 83.8291 75.1098 83.6615C75.1098 83.5392 74.9917 83.3663 74.7682 83.1513M72.702 83.2187C72.2803 83.7121 72.0695 84.0241 72.1116 84.1506C72.1538 84.2771 72.2466 84.3784 72.4996 84.5723C72.6399 84.7046 72.7991 84.8155 72.9719 84.9012C73.0688 84.9012 73.1869 84.7789 73.3303 84.5175C73.4274 84.3659 73.4894 84.1944 73.5116 84.0157C73.2986 83.6932 73.0234 83.4165 72.702 83.2019" fill="white"/>
<path d="M73.8532 86.9464C73.7098 86.4868 73.5327 86.2422 73.3261 86.2127C73.2969 86.2064 73.2667 86.2064 73.2375 86.2127C72.9913 86.5958 72.7674 86.9928 72.5671 87.4018C72.5666 87.7075 72.645 88.0082 72.7948 88.2747C72.959 88.5681 73.0811 88.8833 73.1574 89.2108C73.0478 89.5482 72.6809 89.6789 72.0526 89.6072V89.5777C71.2538 89.5567 70.4721 89.3411 69.7756 88.9494C70.5332 88.2903 70.9987 87.3577 71.0701 86.356C71.1136 85.9699 71.0908 85.5791 71.0026 85.2006C70.893 84.779 70.7117 84.5808 70.4587 84.5555C70.1695 84.5332 69.8789 84.5757 69.6083 84.68C69.3376 84.7844 69.0937 84.9478 68.8942 85.1585C68.0958 85.9077 67.6081 86.9297 67.528 88.0217C67.5044 88.2107 67.5044 88.4019 67.528 88.5909C67.0415 88.8269 66.5152 88.9699 65.9762 89.0126V89.0506L63.4925 88.9199H63.4419L60.9118 88.8482H60.8612H58.4239V88.7217C57.6733 88.7217 56.8651 87.9767 55.9992 86.4868L54.4559 83.2988C54.2788 82.9657 54.1481 82.8013 54.0595 82.8097C53.971 82.8181 53.9119 82.9952 53.9035 83.3537C53.8992 83.6651 53.9161 83.9765 53.9541 84.2856C54.2036 84.8234 54.4136 85.3787 54.5824 85.947C54.7468 86.4123 54.8654 86.8924 54.9366 87.3807C54.9561 87.7144 54.8853 88.0471 54.7317 88.3439C54.5781 88.6407 54.3474 88.8907 54.0637 89.0674C53.4678 89.4815 52.7649 89.7143 52.0397 89.7379C51.5969 89.7632 51.3312 89.6873 51.2385 89.506C51.1627 89.184 51.1245 88.8543 51.1246 88.5235C51.1246 88.4054 51.0782 88.3548 51.0065 88.3717C50.9349 88.3885 50.88 88.4602 50.8252 88.5825C50.5736 89.1217 50.4522 89.7125 50.471 90.3072C50.5059 90.6908 50.6711 91.0509 50.9391 91.3276C51.0547 91.4633 51.1991 91.5715 51.3617 91.6444C51.5244 91.7173 51.7012 91.7532 51.8794 91.7493C52.433 91.7673 52.9831 91.6558 53.4861 91.4238C53.989 91.1917 54.4308 90.8455 54.7764 90.4126C55.3271 89.6549 55.582 88.7222 55.4932 87.7898C55.4932 87.6759 55.4932 87.5663 55.4637 87.4566C55.7915 88.1299 56.1751 88.7745 56.6107 89.3837C57.1729 90.1174 57.7352 90.5166 58.2974 90.5813V90.7162H60.9034L63.3576 90.7879L65.9551 90.9228V90.8807C66.7731 90.8433 67.5651 90.5822 68.2448 90.1259C68.578 90.5475 69.2316 90.8807 70.1972 91.1801C70.7539 91.2771 71.2472 91.3572 71.6816 91.4246V91.4626C72.5249 91.5764 73.0647 91.4373 73.3219 91.0409C73.6948 90.4563 73.9352 89.7971 74.0261 89.1096C74.0806 88.3893 74.0122 87.6649 73.8237 86.9675M68.3882 87.4524C68.5068 87.1573 68.6917 86.8936 68.9286 86.6815C69.1655 86.4694 69.4481 86.3148 69.7545 86.2295L69.9527 86.6048C70.0646 86.9348 70.085 87.2889 70.0117 87.6295C69.6896 87.9153 69.344 88.1735 68.9786 88.4012C68.5822 87.9795 68.384 87.6464 68.3882 87.4524Z" fill="white"/>
<defs>
<linearGradient id="paint0_linear_103_2078" x1="23.4455" y1="103.894" x2="69.5563" y2="103.894" gradientUnits="userSpaceOnUse">
<stop stop-color="#5BD3FB"/>
<stop offset="0.09" stop-color="#4BBFFB"/>
<stop offset="0.41" stop-color="#167FFB"/>
<stop offset="0.55" stop-color="#0266FB"/>
<stop offset="1" stop-color="#003486"/>
</linearGradient>
<linearGradient id="paint1_linear_103_2078" x1="51.5927" y1="103.392" x2="97.7034" y2="103.392" gradientUnits="userSpaceOnUse">
<stop stop-color="#5BD3FB"/>
<stop offset="0.09" stop-color="#4BBFFB"/>
<stop offset="0.41" stop-color="#167FFB"/>
<stop offset="0.55" stop-color="#0266FB"/>
<stop offset="1" stop-color="#003486"/>
</linearGradient>
<linearGradient id="paint2_linear_103_2078" x1="6.50379" y1="53.4127" x2="129.756" y2="50.8955" gradientUnits="userSpaceOnUse">
<stop stop-color="#5BD3FB"/>
<stop offset="0.09" stop-color="#4BBFFB"/>
<stop offset="0.41" stop-color="#167FFB"/>
<stop offset="0.55" stop-color="#0266FB"/>
<stop offset="1" stop-color="#003486"/>
</linearGradient>
<linearGradient id="paint3_linear_103_2078" x1="15.9125" y1="51.9201" x2="119.111" y2="50.6592" gradientUnits="userSpaceOnUse">
<stop stop-color="#5BD3FB"/>
<stop offset="0.09" stop-color="#4BBFFB"/>
<stop offset="0.41" stop-color="#167FFB"/>
<stop offset="0.55" stop-color="#0266FB"/>
<stop offset="1" stop-color="#003486"/>
</linearGradient>
<linearGradient id="paint4_linear_103_2078" x1="104.684" y1="93.9548" x2="116.279" y2="105.705" gradientUnits="userSpaceOnUse">
<stop stop-color="#0047BB"/>
<stop offset="0.13" stop-color="#025BC6"/>
<stop offset="0.54" stop-color="#0793E3"/>
<stop offset="0.84" stop-color="#0BB6F6"/>
<stop offset="1" stop-color="#0CC3FD"/>
</linearGradient>
<linearGradient id="paint5_linear_103_2078" x1="94.6926" y1="101.237" x2="104.117" y2="101.237" gradientUnits="userSpaceOnUse">
<stop stop-color="#04C4FD"/>
<stop offset="0.2" stop-color="#0149BC"/>
<stop offset="0.28" stop-color="#014DBE"/>
<stop offset="0.35" stop-color="#0158C4"/>
<stop offset="0.42" stop-color="#026CCE"/>
<stop offset="0.48" stop-color="#0387DD"/>
<stop offset="0.55" stop-color="#03AAEF"/>
<stop offset="0.59" stop-color="#04C4FD"/>
<stop offset="0.84" stop-color="#0047BB"/>
<stop offset="0.85" stop-color="#0151C1"/>
<stop offset="0.95" stop-color="#09A3EC"/>
<stop offset="1" stop-color="#0CC3FD"/>
</linearGradient>
<linearGradient id="paint6_linear_103_2078" x1="15.877" y1="93.7687" x2="6.94768" y2="105.52" gradientUnits="userSpaceOnUse">
<stop stop-color="#0047BB"/>
<stop offset="0.13" stop-color="#025BC6"/>
<stop offset="0.54" stop-color="#0793E3"/>
<stop offset="0.84" stop-color="#0BB6F6"/>
<stop offset="1" stop-color="#0CC3FD"/>
</linearGradient>
<linearGradient id="paint7_linear_103_2078" x1="16.8884" y1="102.393" x2="26.3551" y2="102.393" gradientUnits="userSpaceOnUse">
<stop stop-color="#04C4FD"/>
<stop offset="0.2" stop-color="#0149BC"/>
<stop offset="0.28" stop-color="#014DBE"/>
<stop offset="0.35" stop-color="#0158C4"/>
<stop offset="0.42" stop-color="#026CCE"/>
<stop offset="0.48" stop-color="#0387DD"/>
<stop offset="0.55" stop-color="#03AAEF"/>
<stop offset="0.59" stop-color="#04C4FD"/>
<stop offset="0.84" stop-color="#0047BB"/>
<stop offset="0.85" stop-color="#0151C1"/>
<stop offset="0.95" stop-color="#09A3EC"/>
<stop offset="1" stop-color="#0CC3FD"/>
</linearGradient>
<linearGradient id="paint8_linear_103_2078" x1="11.2546" y1="89.5607" x2="109.844" y2="89.5607" gradientUnits="userSpaceOnUse">
<stop stop-color="#0047BB"/>
<stop offset="0.31" stop-color="#09C7FD"/>
<stop offset="0.72" stop-color="#0CC3FD"/>
<stop offset="0.74" stop-color="#0BB9F7"/>
<stop offset="0.92" stop-color="#0366CB"/>
<stop offset="1" stop-color="#0046B9"/>
</linearGradient>
</defs>
</svg>
