<svg width="121" height="130" viewBox="0 0 121 130" fill="none" xmlns="http://www.w3.org/2000/svg">
<mask id="mask0_5721_2033" style="mask-type:luminance" maskUnits="userSpaceOnUse" x="23" y="76" width="46" height="54">
<path d="M49.1048 130L45.6347 126.048L44.0393 124.23L38.2529 117.638L30.2436 116.176L27.8465 115.739L23.0239 114.864L49.7082 76.1333L53.1824 78.0243L55.1503 79.0933L63.6618 83.7296L65.6216 84.7986L68.7476 86.4993L49.1048 130Z" fill="white"/>
</mask>
<g mask="url(#mask0_5721_2033)">
<path d="M35.3527 55.7992L-0.911926 115.421L56.3812 150.269L92.6458 90.6476L35.3527 55.7992Z" fill="url(#paint0_linear_5721_2033)"/>
</g>
<path d="M55.1503 79.0933L30.2436 116.176L27.8464 115.739L53.1824 78.0243L55.1503 79.0933Z" fill="#F7E0AD"/>
<path d="M45.6346 126.048L44.0392 124.23L63.6617 83.7296L65.6216 84.7946L45.6346 126.048Z" fill="#F7E0AD"/>
<mask id="mask1_5721_2033" style="mask-type:luminance" maskUnits="userSpaceOnUse" x="50" y="75" width="47" height="55">
<path d="M70.5737 129.498L74.0439 125.546L75.6393 123.728L81.4256 117.136L89.439 115.674L91.8321 115.241L96.6587 114.362L69.9704 75.6312L66.4961 77.5222L64.5282 78.5912L56.0208 83.2276L54.0569 84.2966L50.935 85.9972L70.5737 129.498Z" fill="white"/>
</mask>
<g mask="url(#mask1_5721_2033)">
<path d="M84.7723 55.5841L27.308 89.6361L62.8174 149.56L120.282 115.508L84.7723 55.5841Z" fill="url(#paint1_linear_5721_2033)"/>
</g>
<path d="M64.5283 78.5912L89.439 115.674L91.8321 115.241L66.4962 77.5222L64.5283 78.5912Z" fill="#F7E0AD"/>
<path d="M74.0439 125.546L75.6393 123.728L56.0208 83.2275L54.0569 84.2965L74.0439 125.546Z" fill="#F7E0AD"/>
<g style="mix-blend-mode:multiply">
<mask id="mask2_5721_2033" style="mask-type:luminance" maskUnits="userSpaceOnUse" x="7" y="0" width="104" height="104">
<path d="M110.778 0.728882L7.95264 0.728882L7.95264 103.271H110.778V0.728882Z" fill="white"/>
</mask>
<g mask="url(#mask2_5721_2033)">
<path d="M110.778 52L107.106 55.5795L110.211 59.6611L106.045 62.6576L108.507 67.1562L103.939 69.4967L105.697 74.3152L100.829 75.939L101.846 80.9641L96.7964 81.8468L97.0515 86.969L91.9252 87.0946L91.4231 92.1966L86.3332 91.5608L85.0739 96.5333L80.1379 95.1444L78.1538 99.8698L73.481 97.7602L70.8045 102.133L66.5043 99.3434L63.2041 103.271L59.3655 99.8739L55.5228 103.271L52.2267 99.3434L47.9224 102.133L45.2499 97.7602L40.5771 99.8698L38.593 95.1444L33.653 96.5333L32.3977 91.5608L27.3079 92.1966L26.8058 87.0946L21.6754 86.969L21.9346 81.8468L16.8811 80.9641L17.8975 75.939L13.0344 74.3152L14.7877 69.4926L10.2242 67.1562L12.6821 62.6576L8.51951 59.6611L11.6253 55.5795L7.95264 52L11.6253 48.4205L8.51951 44.3389L12.6821 41.3425L10.2242 36.8438L14.7877 34.5074L13.0344 29.6889L17.8975 28.0651L16.8811 23.036L21.9346 22.1533L21.6754 17.031L26.8058 16.9095L27.3079 11.8035L32.3977 12.4433L33.653 7.47082L38.593 8.8597L40.5771 4.13022L45.2499 6.24391L47.9224 1.86671L52.2267 4.65662L55.5228 0.728882L59.3655 4.13022L63.2041 0.728882L66.5043 4.65662L70.8045 1.86671L73.481 6.24391L78.1538 4.13022L80.1379 8.8597L85.078 7.47082L86.3332 12.4433L91.4231 11.8035L91.9252 16.9095L97.0515 17.031L96.7964 22.1533L101.846 23.036L100.829 28.0651L105.697 29.6889L103.939 34.5074L108.507 36.8438L106.045 41.3425L110.211 44.3389L107.106 48.4205L110.778 52Z" fill="#BDBDBD"/>
</g>
</g>
<path d="M110.045 51.2712L106.373 54.8507L109.479 58.9323L105.316 61.9287L107.778 66.4274L103.21 68.7638L104.968 73.5823L100.101 75.2101L101.117 80.2352L96.0635 81.1179L96.3227 86.2402L91.1963 86.3616L90.6902 91.4677L85.6003 90.8279L84.3451 95.8004L79.4091 94.4115L77.4209 99.141L72.7481 97.0273L70.0757 101.404L65.7754 98.6146L62.4753 102.542L58.6366 99.141L54.7939 102.542L51.4979 98.6146L47.1936 101.404L44.5211 97.0273L39.8483 99.141L37.8601 94.4115L32.9241 95.8004L31.6689 90.8279L26.579 91.4677L26.0729 86.3616L20.9465 86.2402L21.2057 81.1179L16.1523 80.2352L17.1686 75.2101L12.3055 73.5823L14.0588 68.7638L9.49538 66.4274L11.9532 61.9287L7.79065 58.9323L10.8964 54.8507L7.22375 51.2712L10.8964 47.6916L7.79065 43.61L11.9532 40.6136L9.49538 36.1149L14.0588 33.7785L12.3055 28.96L17.1686 27.3322L16.1523 22.3071L21.2057 21.4244L20.9465 16.3021L26.0729 16.1766L26.579 11.0746L31.6689 11.7103L32.9241 6.73789L37.8601 8.12677L39.8483 3.40134L44.5211 5.51503L47.1936 1.13783L51.4979 3.92774L54.7939 0L58.6366 3.39729L62.4753 0L65.7754 3.92774L70.0757 1.13783L72.7481 5.51503L77.425 3.40134L79.4091 8.12677L84.3451 6.73789L85.6003 11.7103L90.6902 11.0746L91.1963 16.1766L96.3227 16.3021L96.0635 21.4244L101.117 22.3071L100.101 27.3322L104.968 28.96L103.21 33.7785L107.778 36.1149L105.316 40.6136L109.479 43.61L106.373 47.6916L110.045 51.2712Z" fill="#EFBE47"/>
<g style="mix-blend-mode:multiply">
<mask id="mask3_5721_2033" style="mask-type:luminance" maskUnits="userSpaceOnUse" x="14" y="7" width="91" height="91">
<path d="M104.502 7.28857L14.6542 7.28857L14.6542 97.1406H104.502L104.502 7.28857Z" fill="white"/>
</mask>
<g mask="url(#mask3_5721_2033)">
<path d="M104.502 52.2025C104.505 61.0887 101.872 69.776 96.9364 77.1658C92.0012 84.5555 84.9853 90.3157 76.7761 93.7178C68.5669 97.1199 59.5332 98.011 50.8175 96.2786C42.1018 94.5462 34.0956 90.2679 27.8116 83.985C21.5275 77.702 17.2478 69.6966 15.5138 60.9812C13.7798 52.2658 14.6693 43.232 18.0699 35.0222C21.4706 26.8124 27.2295 19.7954 34.6183 14.8589C42.0072 9.92227 50.694 7.28777 59.5802 7.28857C65.4814 7.28911 71.3246 8.45221 76.7761 10.7115C82.2276 12.9707 87.1807 16.2818 91.3523 20.4557C95.5239 24.6296 98.8323 29.5844 101.089 35.0371C103.345 40.4899 104.505 46.3337 104.502 52.2349" fill="#EFBE47"/>
</g>
</g>
<path d="M103.559 51.2711C103.559 60.1568 100.924 68.843 95.987 76.2311C91.0503 83.6192 84.0336 89.3775 75.8242 92.7778C67.6148 96.178 58.5814 97.0674 49.8665 95.3336C41.1516 93.5998 33.1466 89.3206 26.8637 83.0372C20.5809 76.7538 16.3024 68.7483 14.5694 60.0333C12.8364 51.3182 13.7266 42.285 17.1276 34.0759C20.5285 25.8668 26.2875 18.8506 33.676 13.9145C41.0646 8.97847 49.751 6.34429 58.6367 6.34509C64.5378 6.34562 70.3811 7.50873 75.8326 9.76798C81.2841 12.0272 86.2371 15.3383 90.4087 19.5122C94.5803 23.6861 97.8888 28.6409 100.145 34.0936C102.401 39.5464 103.561 45.3902 103.559 51.2914" fill="#F7E0AD"/>
<path d="M101.32 51.2712C101.32 59.714 98.8159 67.9672 94.1252 74.9871C89.4345 82.007 82.7675 87.4783 74.9673 90.709C67.1671 93.9398 58.584 94.7849 50.3034 93.1375C42.0229 91.4901 34.4168 87.4241 28.4471 81.4539C22.4774 75.4836 18.4122 67.8772 16.7656 59.5965C15.119 51.3158 15.9649 42.7327 19.1964 34.9328C22.4279 27.1329 27.8998 20.4664 34.9201 15.7764C41.9405 11.0864 50.1939 8.58355 58.6368 8.58435C64.2423 8.58435 69.7929 9.68851 74.9717 11.8338C80.1504 13.979 84.8559 17.1234 88.8195 21.0873C92.783 25.0512 95.9269 29.757 98.0716 34.9359C100.216 40.1149 101.32 45.6656 101.32 51.2712Z" fill="#FBD369"/>
<path d="M93.5814 52.2591C93.5814 58.9761 91.5896 65.5422 87.8577 71.1271C84.1259 76.712 78.8217 81.0648 72.616 83.6351C66.4102 86.2054 59.5816 86.8777 52.9938 85.567C46.4059 84.2563 40.3547 81.0215 35.6054 76.2716C30.856 71.5217 27.6219 65.47 26.312 58.882C25.0021 52.294 25.6752 45.4655 28.2462 39.2601C30.8172 33.0546 35.1707 27.751 40.7561 24.0198C46.3414 20.2886 52.9078 18.2975 59.6247 18.2983C64.0843 18.2983 68.5003 19.1768 72.6203 20.8835C76.7404 22.5903 80.484 25.0919 83.6372 28.2455C86.7904 31.3991 89.2915 35.1429 90.9978 39.2632C92.704 43.3835 93.582 47.7995 93.5814 52.2591Z" fill="#F6EAD8"/>
<mask id="mask4_5721_2033" style="mask-type:luminance" maskUnits="userSpaceOnUse" x="24" y="17" width="69" height="69">
<path d="M24.6759 51.2712C24.6759 57.988 26.6677 64.554 30.3993 70.1388C34.131 75.7236 39.4349 80.0764 45.6404 82.6468C51.846 85.2173 58.6743 85.8898 65.2621 84.5794C71.8498 83.269 77.901 80.0346 82.6505 75.2851C87.4 70.5356 90.6345 64.4843 91.9448 57.8966C93.2552 51.3089 92.5827 44.4805 90.0123 38.275C87.4419 32.0695 83.089 26.7655 77.5042 23.0338C71.9194 19.3022 65.3535 17.3104 58.6367 17.3104C49.6297 17.3104 40.9916 20.8884 34.6228 27.2573C28.2539 33.6262 24.6759 42.2642 24.6759 51.2712Z" fill="white"/>
</mask>
<g mask="url(#mask4_5721_2033)">
<path d="M92.6062 16.9764L24.3858 17.286L24.6954 85.5065L92.9158 85.1969L92.6062 16.9764Z" fill="url(#paint2_linear_5721_2033)"/>
</g>
<g style="mix-blend-mode:multiply">
<mask id="mask5_5721_2033" style="mask-type:luminance" maskUnits="userSpaceOnUse" x="24" y="17" width="60" height="60">
<path d="M83.4421 17.3104L24.6758 17.3104L24.6758 76.0767H83.4421V17.3104Z" fill="white"/>
</mask>
<g mask="url(#mask5_5721_2033)">
<path d="M26.2875 52.8827C26.2866 46.2632 28.2206 39.7877 31.8516 34.2528C35.4825 28.7179 40.652 24.3649 46.7243 21.7293C52.7966 19.0937 59.5067 18.2904 66.0295 19.4182C72.5523 20.5461 78.6033 23.5558 83.4381 28.0773C80.3165 24.7885 76.5678 22.1582 72.4132 20.3417C68.2586 18.5251 63.7823 17.559 59.2484 17.5004C54.7144 17.4418 50.2146 18.2918 46.0145 20.0004C41.8143 21.7089 37.9989 24.2414 34.7933 27.4483C31.5877 30.6553 29.0568 34.4718 27.3501 38.6726C25.6433 42.8735 24.7952 47.3736 24.8557 51.9076C24.9162 56.4415 25.8842 60.9174 27.7025 65.0712C29.5208 69.225 32.1527 72.9726 35.4427 76.0928C29.5488 69.8094 26.2744 61.514 26.2875 52.8989" fill="#EFBE47"/>
</g>
</g>
<path d="M58.2803 11.8277L58.9929 10.37L59.7177 11.8196L61.3253 12.0464L60.1672 13.1842L60.4506 14.7796L59.0091 14.0345L57.5757 14.7958L57.8429 13.1963L56.6768 12.0666L58.2803 11.8277Z" fill="#E69A19"/>
<path d="M48.0033 13.3705L48.311 11.7751L49.3881 12.9899L50.9957 12.7915L50.1737 14.1925L50.862 15.6624L49.2788 15.3101L48.0883 16.4196L47.9345 14.804L46.5132 14.0184L48.0033 13.3705Z" fill="#E69A19"/>
<path d="M38.4715 17.5209L38.3581 15.9012L39.7146 16.7961L41.2169 16.1887L40.7836 17.7517L41.8283 18.9948L40.2086 19.0677L39.3461 20.4404L38.7792 18.922L37.2041 18.5292L38.4715 17.5209Z" fill="#E69A19"/>
<path d="M30.3407 23.9957L29.8143 22.461L31.353 22.9753L32.6488 21.9994L32.6366 23.6191L33.9648 24.5504L32.418 25.0403L31.9442 26.5912L31.0008 25.2712L29.377 25.2995L30.3407 23.9957Z" fill="#E69A19"/>
<path d="M24.1657 32.3532L23.2587 31.0089L24.8784 31.1061L25.8744 29.8265L26.2834 31.3976L27.81 31.9524L26.4413 32.827L26.3846 34.4467L25.1294 33.4182L23.5704 33.8636L24.1657 32.3532Z" fill="#E69A19"/>
<path d="M20.3593 42.0267L19.1365 40.9618L20.7278 40.6378L21.3595 39.1437L22.1612 40.5569L23.7769 40.6986L22.6795 41.8931L23.048 43.4763L21.57 42.8042L20.1812 43.6383L20.3593 42.0267Z" fill="#E69A19"/>
<path d="M19.1892 52.3563L17.7314 51.6436L19.1851 50.9188L19.4078 49.3113L20.5457 50.4694L22.1451 50.1859L21.396 51.6274L22.1613 53.0568L20.5578 52.7936L19.4321 53.9598L19.1892 52.3563Z" fill="#E69A19"/>
<path d="M20.7319 62.6333L19.1405 62.3255L20.3553 61.2484L20.1569 59.6368L21.5538 60.4588L23.0237 59.7745L22.6755 61.3578L23.785 62.5442L22.1693 62.7021L21.3838 64.1193L20.7319 62.6333Z" fill="#E69A19"/>
<path d="M24.8823 72.165L23.2667 72.2784L24.1615 70.9219L23.5501 69.4197L25.1172 69.8489L26.3603 68.8082L26.4291 70.4279L27.8058 71.2864L26.2874 71.8573L25.8946 73.4324L24.8823 72.165Z" fill="#E69A19"/>
<path d="M31.3611 80.2919L29.8264 80.8223L30.3407 79.2836L29.3608 77.9879L30.9845 78L31.9158 76.6719L32.4017 78.2187L33.9566 78.6924L32.6366 79.6359L32.6649 81.2596L31.3611 80.2919Z" fill="#E69A19"/>
<path d="M39.7187 86.471L38.3743 87.378L38.4715 85.7583L37.192 84.7622L38.7631 84.3532L39.3178 82.8267L40.1884 84.1953L41.8121 84.252L40.7796 85.5032L41.229 87.0621L39.7187 86.471Z" fill="#E69A19"/>
<path d="M49.3922 90.2732L48.3272 91.5001L48.0033 89.9088L46.5092 89.2771L47.9223 88.4754L48.06 86.8597L49.2586 87.953L50.8378 87.5886L50.1656 89.0666L51.0038 90.4554L49.3922 90.2732Z" fill="#E69A19"/>
<path d="M59.7177 91.4434L59.0091 92.9052L58.2843 91.4515L56.6768 91.2248L57.8308 90.0869L57.5514 88.4915L58.9889 89.2366L60.4223 88.4753L60.155 90.0788L61.3253 91.2045L59.7177 91.4434Z" fill="#E69A19"/>
<path d="M69.9987 89.9006L69.6869 91.496L68.6139 90.2812L67.0023 90.4797L67.8243 89.0786L67.1399 87.6088L68.7232 87.961L69.9096 86.8516L70.0675 88.4672L71.4847 89.2527L69.9987 89.9006Z" fill="#E69A19"/>
<path d="M79.5264 85.7502L79.6398 87.3699L78.2874 86.475L76.7811 87.0824L77.2144 85.5194L76.1737 84.2763L77.7934 84.2074L78.6518 82.8307L79.2228 84.3491L80.7979 84.7419L79.5264 85.7502Z" fill="#E69A19"/>
<path d="M87.6573 79.2755L88.1878 80.8101L86.6491 80.2959L85.3533 81.2717L85.3655 79.6521L84.0333 78.7207L85.5841 78.2308L86.0579 76.6799L87.0013 78L88.621 77.9716L87.6573 79.2755Z" fill="#E69A19"/>
<path d="M93.8364 70.9179L94.7434 72.2622L93.1237 72.1651L92.1236 73.4446L91.7186 71.8735L90.1921 71.3188L91.5607 70.4441L91.6174 68.8245L92.8686 69.853L94.4276 69.4076L93.8364 70.9179Z" fill="#E69A19"/>
<path d="M97.6386 61.2443L98.8614 62.3092L97.2741 62.6332L96.6384 64.1273L95.8407 62.7141L94.2251 62.5724L95.3184 61.3779L94.954 59.7987L96.4319 60.4668L97.8208 59.6327L97.6386 61.2443Z" fill="#E69A19"/>
<path d="M98.8088 50.9148L100.267 51.6274L98.8169 52.3522L98.5902 53.9598L97.4523 52.8017L95.8529 53.0851L96.602 51.6436L95.8408 50.2143L97.4402 50.4815L98.5659 49.3113L98.8088 50.9148Z" fill="#E69A19"/>
<path d="M97.2661 40.6379L98.8574 40.9457L97.6427 42.0227L97.8411 43.6343L96.4441 42.8123L94.9742 43.4967L95.3225 41.9134L94.217 40.727L95.8327 40.5691L96.6182 39.1519L97.2661 40.6379Z" fill="#E69A19"/>
<path d="M93.1156 31.1101L94.7353 30.9967L93.8404 32.3491L94.4478 33.8514L92.8848 33.4222L91.6417 34.4628L91.5688 32.8431L90.1921 31.9847L91.7105 31.4138L92.1033 29.8386L93.1156 31.1101Z" fill="#E69A19"/>
<path d="M86.6409 22.9793L88.1756 22.4489L87.6613 23.9876L88.6371 25.2833L87.0134 25.2712L86.0861 26.5993L85.5962 25.0525L84.0453 24.5788L85.3654 23.6353L85.337 22.0156L86.6409 22.9793Z" fill="#E69A19"/>
<path d="M78.2833 16.8002L79.6277 15.8932L79.5265 17.5129L80.806 18.513L79.239 18.918L78.6842 20.4445L77.8096 19.0759L76.1859 19.0192L77.2184 17.768L76.773 16.209L78.2833 16.8002Z" fill="#E69A19"/>
<path d="M68.6098 12.9979L69.6747 11.771L69.9987 13.3623L71.4928 13.994L70.0796 14.7958L69.9379 16.4114L68.7434 15.3181L67.1601 15.6825L67.8323 14.2046L66.9982 12.8157L68.6098 12.9979Z" fill="#E69A19"/>
<path d="M52.9474 44.2943C52.8155 44.0794 52.6379 43.8961 52.4273 43.7574C52.2167 43.6187 51.9781 43.528 51.7286 43.4917C51.479 43.4554 51.2246 43.4743 50.9831 43.5473C50.7417 43.6202 50.5193 43.7453 50.3316 43.9137C49.931 44.296 49.6784 44.8076 49.6184 45.3581C49.5584 45.9086 49.6948 46.4626 50.0036 46.9223L51.1819 48.6675L53.3118 44.8288L52.9474 44.2943Z" fill="#FBD369"/>
<path d="M69.6058 46.9385C69.9092 46.477 70.0424 45.9243 69.9825 45.3753C69.9227 44.8263 69.6735 44.3152 69.2778 43.9299C69.0904 43.7609 68.8681 43.6352 68.6265 43.5618C68.385 43.4885 68.1303 43.4693 67.8805 43.5057C67.6308 43.542 67.392 43.633 67.1814 43.7721C66.9708 43.9112 66.7935 44.0951 66.6621 44.3106L66.2571 44.8856L68.387 48.7242L69.6058 46.9385Z" fill="#FBD369"/>
<g style="mix-blend-mode:multiply">
<mask id="mask6_5721_2033" style="mask-type:luminance" maskUnits="userSpaceOnUse" x="34" y="31" width="51" height="48">
<path d="M84.8876 31.6689L34.5883 31.6689L34.5883 78.077H84.8876V31.6689Z" fill="white"/>
</mask>
<g mask="url(#mask6_5721_2033)">
<path d="M37.4349 78.077L51.6071 52.5345L50.0036 50.1779C49.6951 49.7189 49.5588 49.1655 49.6189 48.6157C49.6789 48.0659 49.9313 47.555 50.3316 47.1734C50.519 47.0048 50.7412 46.8795 50.9825 46.8062C51.2237 46.733 51.4781 46.7136 51.7276 46.7496C51.9772 46.7855 52.2157 46.8758 52.4265 47.0141C52.6373 47.1524 52.8151 47.3353 52.9474 47.55L53.7248 48.704L59.7987 37.7711L65.8725 48.7323L66.6823 47.5378C66.8136 47.3221 66.991 47.138 67.2018 46.9989C67.4125 46.8597 67.6515 46.7689 67.9014 46.7329C68.1514 46.6969 68.4063 46.7166 68.6477 46.7907C68.8892 46.8647 69.1113 46.9913 69.2981 47.1612C69.6935 47.5459 69.9425 48.0562 70.0023 48.6045C70.0622 49.1528 69.9292 49.7049 69.6261 50.1658L68.0064 52.571L81.9924 77.8138C82.6808 77.2105 83.8469 76.1617 84.9078 75.0725L61.3535 32.6488C61.2028 32.3603 60.9776 32.1173 60.7014 31.945C60.4252 31.7727 60.1079 31.6774 59.7825 31.6689C59.4556 31.6713 59.1358 31.764 58.8585 31.937C58.5812 32.11 58.3572 32.3564 58.2114 32.6488L34.5883 75.2506C35.4501 76.2749 36.3984 77.2232 37.4227 78.0851" fill="#EFBE47"/>
</g>
</g>
<g style="mix-blend-mode:multiply">
<mask id="mask7_5721_2033" style="mask-type:luminance" maskUnits="userSpaceOnUse" x="50" y="45" width="20" height="19">
<path d="M69.6545 45.6752H50.028V63.0261H69.6545V45.6752Z" fill="white"/>
</mask>
<g mask="url(#mask7_5721_2033)">
<path d="M59.8271 63.0261C60.1658 63.0052 60.4958 62.9103 60.7938 62.7479C61.0919 62.5856 61.3507 62.3599 61.552 62.0867L69.6505 50.097L67.2209 45.7198L59.8473 56.6526L52.4453 45.6874L50.0158 50.0605L58.1507 62.0867C58.3293 62.3682 58.5747 62.6012 58.865 62.7651C59.1553 62.929 59.4816 63.0187 59.8149 63.0261" fill="#EFBE47"/>
</g>
</g>
<path d="M59.7704 59.9729C60.066 59.9565 60.3545 59.8756 60.6155 59.7356C60.8764 59.5957 61.1035 59.4002 61.2807 59.163L67.9741 49.2586L69.5938 46.8575C69.8971 46.396 70.0303 45.8432 69.9705 45.2942C69.9106 44.7452 69.6615 44.2342 69.2658 43.8489C69.0784 43.6798 68.856 43.5541 68.6145 43.4808C68.373 43.4075 68.1182 43.3883 67.8684 43.4246C67.6187 43.461 67.38 43.5519 67.1694 43.6911C66.9588 43.8302 66.7814 44.014 66.65 44.2295L65.8401 45.42L59.7866 54.385L53.7127 45.3795L52.9353 44.2295C52.8034 44.0146 52.6258 43.8313 52.4152 43.6926C52.2046 43.5539 51.9661 43.4632 51.7165 43.4269C51.4669 43.3906 51.2125 43.4096 50.9711 43.4825C50.7297 43.5554 50.5072 43.6805 50.3195 43.8489C49.9189 44.2312 49.6663 44.7428 49.6063 45.2933C49.5463 45.8438 49.6827 46.3978 49.9915 46.8575L51.5869 49.2182L58.3086 59.163C58.466 59.4077 58.6815 59.6096 58.9358 59.7509C59.1901 59.8922 59.4754 59.9684 59.7663 59.9729" fill="#F7E0AD"/>
<path d="M35.8476 76.3155L51.182 48.6675L50.0036 46.9384C49.6948 46.4788 49.5584 45.9248 49.6184 45.3743C49.6784 44.8238 49.931 44.3122 50.3316 43.9299C50.5193 43.7615 50.7418 43.6364 50.9832 43.5635C51.2246 43.4905 51.4791 43.4716 51.7286 43.5079C51.9782 43.5442 52.2167 43.6349 52.4273 43.7736C52.6379 43.9123 52.8155 44.0956 52.9474 44.3105L53.3078 44.845L59.7703 33.1711L66.2491 44.8814L66.654 44.3065C66.7855 44.091 66.9628 43.9071 67.1734 43.768C67.384 43.6289 67.6227 43.5379 67.8725 43.5016C68.1223 43.4652 68.377 43.4844 68.6185 43.5577C68.86 43.6311 69.0824 43.7567 69.2698 43.9258C69.6655 44.3111 69.9146 44.8222 69.9745 45.3712C70.0343 45.9202 69.9012 46.4729 69.5978 46.9344L68.383 48.7201L83.6405 76.2548C84.6174 75.2927 85.533 74.2703 86.3818 73.1936L61.3536 28.0327C61.2027 27.7439 60.9776 27.5005 60.7015 27.3276C60.4254 27.1547 60.1082 27.0584 59.7825 27.0487C59.4554 27.0518 59.1354 27.1454 58.8582 27.3191C58.5809 27.4927 58.357 27.7397 58.2114 28.0327L33.0455 73.4487C33.7703 74.218 34.8029 75.291 35.88 76.3155" fill="#F7E0AD"/>
<mask id="mask8_5721_2033" style="mask-type:luminance" maskUnits="userSpaceOnUse" x="95" y="87" width="26" height="26">
<path d="M95.3104 106.227L115.512 112.001L113.467 101.085L120.97 92.8971L100.769 87.1229L95.3104 106.227Z" fill="white"/>
</mask>
<g mask="url(#mask8_5721_2033)">
<path d="M120.97 87.1229H95.3104V112.001H120.97V87.1229Z" fill="url(#paint3_linear_5721_2033)"/>
</g>
<g opacity="0.3">
<mask id="mask9_5721_2033" style="mask-type:luminance" maskUnits="userSpaceOnUse" x="95" y="101" width="9" height="6">
<path d="M103.838 101.166H95.3104V106.304H103.838V101.166Z" fill="white"/>
</mask>
<g mask="url(#mask9_5721_2033)">
<path d="M95.3104 106.227L100.356 106.304C101.095 106.315 101.817 106.083 102.412 105.644C103.006 105.206 103.44 104.584 103.648 103.874L103.838 103.202L96.756 101.178L95.3104 106.227Z" fill="black"/>
</g>
</g>
<mask id="mask10_5721_2033" style="mask-type:luminance" maskUnits="userSpaceOnUse" x="94" y="101" width="11" height="7">
<path d="M94.8123 107.013L100.376 107.098H100.433C101.251 107.096 102.046 106.829 102.699 106.336C103.352 105.843 103.827 105.151 104.053 104.364L104.247 103.692L103.482 103.474L103.291 104.146C103.113 104.767 102.738 105.313 102.222 105.702C101.707 106.092 101.079 106.303 100.433 106.304H100.388L95.8611 106.235L97.1649 101.672L96.4037 101.453L94.8123 107.013Z" fill="white"/>
</mask>
<g mask="url(#mask10_5721_2033)">
<path d="M104.247 101.453H94.8123V107.098H104.247V101.453Z" fill="url(#paint4_linear_5721_2033)"/>
</g>
<mask id="mask11_5721_2033" style="mask-type:luminance" maskUnits="userSpaceOnUse" x="0" y="87" width="26" height="26">
<path d="M0 93.3627L7.61252 101.453L5.71343 112.394L25.834 106.357L20.1246 87.3253L0 93.3627Z" fill="white"/>
</mask>
<g mask="url(#mask11_5721_2033)">
<path d="M25.834 87.3253H0L0 112.394H25.834V87.3253Z" fill="url(#paint5_linear_5721_2033)"/>
</g>
<g opacity="0.3">
<mask id="mask12_5721_2033" style="mask-type:luminance" maskUnits="userSpaceOnUse" x="17" y="101" width="9" height="6">
<path d="M25.834 101.311H17.2659V106.498H25.834V101.311Z" fill="white"/>
</mask>
<g mask="url(#mask12_5721_2033)">
<path d="M25.834 106.357L20.7887 106.498C20.0484 106.518 19.3222 106.294 18.7221 105.86C18.122 105.426 17.6814 104.806 17.4683 104.097L17.2659 103.429L24.3196 101.311L25.834 106.357Z" fill="black"/>
</g>
</g>
<mask id="mask13_5721_2033" style="mask-type:luminance" maskUnits="userSpaceOnUse" x="45" y="87" width="3" height="3">
<path d="M46.3513 88.6454L45.3228 89.5646C45.6984 89.5919 46.0761 89.566 46.4445 89.4876C46.7602 89.3954 47.0656 89.2705 47.3555 89.1151L46.9506 87.7465C46.8219 88.0898 46.6138 88.3978 46.3432 88.6454" fill="white"/>
</mask>
<g mask="url(#mask13_5721_2033)">
<path d="M47.3555 87.7587H45.3228V89.597H47.3555V87.7587Z" fill="url(#paint6_linear_5721_2033)"/>
</g>
<mask id="mask14_5721_2033" style="mask-type:luminance" maskUnits="userSpaceOnUse" x="61" y="89" width="3" height="3">
<path d="M61.5885 89.9857C61.4994 90.1638 61.4184 90.3339 61.3375 90.508L63.0462 91.2935C62.7668 90.3136 62.4348 89.7994 62.042 89.7548H61.9691C61.8896 89.7523 61.8112 89.7732 61.7435 89.815C61.6758 89.8567 61.6219 89.9175 61.5885 89.9897" fill="white"/>
</mask>
<g mask="url(#mask14_5721_2033)">
<path d="M63.0463 89.7509H61.3375V91.2896H63.0463V89.7509Z" fill="url(#paint7_linear_5721_2033)"/>
</g>
<mask id="mask15_5721_2033" style="mask-type:luminance" maskUnits="userSpaceOnUse" x="68" y="87" width="2" height="2">
<path d="M68.3669 87.8639C68.1726 88.0056 68.0673 88.1271 68.0551 88.2202C68.043 88.3134 68.1483 88.3781 68.3669 88.4065C68.8974 88.4794 69.2537 88.3781 69.44 88.1109C69.2899 87.9037 69.1049 87.7242 68.8933 87.5804C68.7028 87.6439 68.5247 87.7398 68.3669 87.8639Z" fill="white"/>
</mask>
<g mask="url(#mask15_5721_2033)">
<path d="M69.44 87.5804H68.043V88.4794H69.44V87.5804Z" fill="url(#paint8_linear_5721_2033)"/>
</g>
<mask id="mask16_5721_2033" style="mask-type:luminance" maskUnits="userSpaceOnUse" x="11" y="76" width="99" height="28">
<path d="M43.861 90.8927C43.7882 89.8804 44.2336 88.9572 45.1892 88.1231C45.3228 88.0056 45.8613 87.6533 46.8089 87.0784C46.8427 86.8095 46.8427 86.5374 46.8089 86.2685C46.7712 85.9907 46.7644 85.7096 46.7886 85.4303C46.8413 85.0861 46.9182 84.908 47.0194 84.8999C47.1206 84.8918 47.2016 85.0821 47.2948 85.4627C47.535 86.6622 47.9071 87.8314 48.4042 88.9491C49.0926 90.2988 50.0226 91.0047 51.1942 91.0668V91.0749H53.6642H56.2921L58.7702 91.1438V91.0749C59.1449 91.0887 59.5201 91.0711 59.8919 91.0223C60.3326 90.6776 60.7013 90.2498 60.977 89.763C61.1543 89.4218 61.3853 89.1114 61.6614 88.8438C61.839 88.7864 62.0256 88.7617 62.2121 88.7709C62.3993 88.7963 62.5789 88.8615 62.7388 88.9621C62.8988 89.0627 63.0353 89.1963 63.1393 89.354C63.4093 89.6779 63.6644 90.0059 63.9046 90.338C64.4825 90.9837 65.2441 91.4373 66.0872 91.6378C66.9689 91.7595 67.8664 91.6905 68.7191 91.4353C69.3034 91.2671 69.8356 90.9537 70.2659 90.5242C70.2659 90.4595 70.2943 90.3947 70.3024 90.3258C70.3853 89.699 70.218 89.0648 69.8367 88.5604C69.8344 89.0828 69.6448 89.5871 69.3022 89.9816C69.0345 90.1691 68.7082 90.2539 68.3831 90.2206C68.313 90.2247 68.2426 90.2247 68.1725 90.2206C67.4153 90.1234 67.1197 89.4107 67.2898 88.1514C67.3903 87.6045 67.6147 87.0878 67.9458 86.641C68.3871 85.9729 68.8285 85.653 69.2739 85.6814C69.8084 85.7138 70.2781 86.1227 70.6749 86.8961C71.1102 87.7962 71.26 88.8078 71.1041 89.7954C71.0618 90.1397 70.99 90.4797 70.8895 90.8117C70.6871 91.2693 70.5575 91.5568 70.4846 91.6661C70.3629 91.9186 70.1922 92.1443 69.9825 92.3302C69.2975 92.7717 68.5371 93.0833 67.7392 93.2494C67.0819 93.4377 66.397 93.5116 65.7146 93.468V93.4154C64.9454 93.2935 64.2196 92.9787 63.605 92.5003C63.5553 92.7118 63.4615 92.9106 63.3296 93.0833C63.2571 93.1505 63.17 93.2 63.0752 93.2281C62.9804 93.2562 62.8804 93.2621 62.783 93.2453C62.3788 93.1601 61.9869 93.024 61.6168 92.8404C61.0552 92.6375 60.5539 92.2963 60.1591 91.8483C59.6975 92.5043 59.244 92.8606 58.8067 92.9133V92.9821L56.2192 92.9133H53.7492H51.1213V92.8809C50.7373 92.9145 50.3505 92.8721 49.9829 92.7561C49.6154 92.64 49.2743 92.4526 48.9792 92.2047C48.3742 91.5375 47.9126 90.7533 47.6227 89.9006C47.3931 90.2746 47.1374 90.6318 46.8574 90.9696C46.3811 91.3544 45.793 91.5746 45.1811 91.5973C45.0758 91.5973 44.9746 91.5973 44.8814 91.5973C44.2416 91.5973 43.9056 91.3543 43.8732 90.8765M11.1677 84.8027L12.7104 89.5565C14.241 94.2698 15.773 98.9844 17.3063 103.7H17.3549C19.6953 102.939 22.0493 102.243 24.4167 101.611C47.992 95.3108 72.8056 95.2898 96.3915 101.55L96.6466 101.615L97.1568 101.757C99.2705 102.326 101.371 102.949 103.457 103.623L103.708 103.704H103.737C103.737 103.656 103.769 103.611 103.781 103.567C105.325 98.813 106.869 94.0619 108.414 89.3135C108.905 87.8099 109.394 86.3077 109.879 84.8068C77.8013 74.3815 43.2458 74.3815 11.1677 84.8068" fill="white"/>
</mask>
<g mask="url(#mask16_5721_2033)">
<path d="M109.867 76.9796H11.1555L11.1555 103.692H109.867V76.9796Z" fill="url(#paint9_linear_5721_2033)"/>
</g>
<mask id="mask17_5721_2033" style="mask-type:luminance" maskUnits="userSpaceOnUse" x="16" y="101" width="11" height="7">
<path d="M23.9673 101.822L25.3521 106.369L20.8251 106.498C20.1718 106.516 19.531 106.318 19.0013 105.935C18.4716 105.552 18.0823 105.006 17.8934 104.381L17.695 103.713L16.9338 103.939L17.1322 104.607C17.3659 105.383 17.8429 106.062 18.4925 106.546C19.1422 107.029 19.9302 107.291 20.74 107.292H20.8494L26.4089 107.134L24.7285 101.603L23.9673 101.822Z" fill="white"/>
</mask>
<g mask="url(#mask17_5721_2033)">
<path d="M26.3927 101.595H16.9135V107.292H26.3927V101.595Z" fill="url(#paint10_linear_5721_2033)"/>
</g>
<path d="M46.8657 83.3815C46.8373 83.264 46.6875 83.1183 46.4243 82.9441C46.2929 82.8422 46.143 82.7666 45.9829 82.7214C45.9222 82.7457 45.8331 82.8875 45.7157 83.1507C45.6323 83.3354 45.5633 83.5263 45.5092 83.7216C45.6204 83.8784 45.7573 84.0153 45.9141 84.1265C46.0558 84.2594 46.2357 84.3444 46.4283 84.3695C46.562 84.3452 46.6753 84.1832 46.7685 83.8795C46.8251 83.7233 46.8578 83.5595 46.8657 83.3936M45.3917 84.0617C45.1315 83.7898 44.8188 83.5735 44.4726 83.426C44.1486 83.9888 44.019 84.329 44.0676 84.4383C44.1162 84.5476 44.2539 84.6408 44.5374 84.7946C44.6973 84.893 44.8724 84.9642 45.0556 85.0052C45.1407 85.0052 45.2298 84.8513 45.3107 84.5719C45.3761 84.4103 45.3998 84.2349 45.3796 84.0617" fill="white"/>
<path d="M70.6669 86.8921C70.262 86.1147 69.8004 85.7057 69.2659 85.6774C68.8205 85.649 68.3791 85.9689 67.9377 86.637C67.6067 87.0838 67.3823 87.6005 67.2818 88.1474C67.1117 89.427 67.4059 90.1167 68.1645 90.2165C68.2346 90.2209 68.3049 90.2209 68.3751 90.2165C68.7002 90.2499 69.0265 90.1651 69.2942 89.9776C69.6368 89.5831 69.8264 89.0788 69.8287 88.5564C70.2104 89.0606 70.3777 89.695 70.2944 90.3218C70.2944 90.3907 70.2701 90.4554 70.258 90.5202C69.8282 90.9496 69.2957 91.2619 68.7112 91.4273C67.8591 91.6858 66.9611 91.7562 66.0792 91.6338C65.2361 91.4333 64.4745 90.9797 63.8966 90.334C63.6456 90.0019 63.3905 89.6739 63.1313 89.35C63.0273 89.1923 62.8908 89.0587 62.7308 88.9581C62.5709 88.8575 62.3913 88.7923 62.2041 88.7669C62.0176 88.7577 61.831 88.7824 61.6534 88.8398C61.3773 89.1074 61.1463 89.4178 60.9691 89.759C60.6933 90.2458 60.3246 90.6736 59.8839 91.0183C59.5121 91.0671 59.1369 91.0847 58.7622 91.0709V91.1276L56.2841 91.0628H56.2396H53.6562H51.1861V91.0264C50.0119 90.9724 49.0819 90.2665 48.3962 88.9087C47.8991 87.791 47.527 86.6217 47.2868 85.4223C47.1936 85.0416 47.1005 84.8554 47.0114 84.8594C46.9223 84.8635 46.8332 85.0457 46.7806 85.3899C46.7564 85.6692 46.7631 85.9503 46.8008 86.2281C46.8347 86.497 46.8347 86.769 46.8008 87.0379C46.2425 87.3567 45.7018 87.7054 45.1812 88.0826C44.2255 88.9167 43.7801 89.84 43.853 90.8523C43.8895 91.3989 44.3268 91.6378 45.1609 91.5568C45.7728 91.5342 46.361 91.314 46.8373 90.9292C47.1235 90.6057 47.3861 90.262 47.6228 89.9007C47.9172 90.763 48.3858 91.5556 48.9996 92.229C49.2946 92.477 49.6357 92.6644 50.0033 92.7804C50.3708 92.8964 50.7576 92.9389 51.1416 92.9052V92.9376H53.7695H56.2396L58.827 93.0065V92.9376C59.2643 92.885 59.7178 92.5327 60.1795 91.8727C60.5727 92.3214 61.0746 92.6617 61.6372 92.8607C62.0068 93.0455 62.3988 93.1816 62.8033 93.2656C62.9008 93.2824 63.0008 93.2765 63.0956 93.2484C63.1904 93.2203 63.2774 93.1708 63.35 93.1036C63.4818 92.9308 63.5757 92.7321 63.6253 92.5205C64.2399 92.999 64.9657 93.3138 65.735 93.4357V93.4843C66.4172 93.5317 67.1024 93.459 67.7596 93.2696C68.5574 93.1036 69.3179 92.792 70.0029 92.3505C70.2126 92.1646 70.3833 91.9389 70.505 91.6864C70.5657 91.5771 70.6953 91.2815 70.9099 90.832C71.0107 90.4987 71.0825 90.1573 71.1245 89.8116C71.2779 88.8254 71.1282 87.8157 70.6953 86.9164M68.3953 88.4308C68.1766 88.4025 68.0714 88.3418 68.0835 88.2446C68.0957 88.1474 68.2009 88.03 68.3953 87.8882C68.5531 87.7641 68.7312 87.6682 68.9217 87.6048C69.1333 87.7486 69.3183 87.9281 69.4684 88.1352C69.2821 88.4025 68.9258 88.5037 68.3953 88.4308ZM46.4729 89.5241C46.1045 89.6025 45.7269 89.6284 45.3512 89.6011L46.3797 88.6819C46.6503 88.4344 46.8584 88.1263 46.9871 87.783L47.392 89.1516C47.1021 89.307 46.7967 89.4319 46.481 89.5241M61.374 90.5324C61.455 90.3583 61.5359 90.1882 61.625 90.01C61.6628 89.9255 61.7285 89.8565 61.811 89.8145C61.8935 89.7725 61.988 89.76 62.0785 89.7792C62.4673 89.8224 62.802 90.3353 63.0827 91.3179L61.374 90.5324Z" fill="white"/>
<path d="M69.7841 82.8268C69.6275 82.9167 69.4899 83.0364 69.3792 83.1791C69.2298 83.3372 69.0943 83.5079 68.9743 83.6893C69.3184 84.0658 69.606 84.3695 69.8489 84.5963C70.033 84.4648 70.2027 84.3141 70.3551 84.1468C70.4724 84.0416 70.5758 83.9219 70.6628 83.7905C70.4677 83.3908 70.1611 83.0561 69.7801 82.8268M68.043 82.9644C67.4963 83.4706 67.2331 83.7743 67.2696 83.8796L68.1361 84.7502C68.3369 84.6612 68.5113 84.5217 68.6422 84.3452C68.8582 84.105 68.9594 83.943 68.9459 83.8593C68.7053 83.5069 68.3987 83.2043 68.043 82.9685" fill="white"/>
<defs>
<linearGradient id="paint0_linear_5721_2033" x1="34.311" y1="121.484" x2="48.3" y2="98.4855" gradientUnits="userSpaceOnUse">
<stop stop-color="#FACC25"/>
<stop offset="1" stop-color="#F19C01"/>
</linearGradient>
<linearGradient id="paint1_linear_5721_2033" x1="82.7222" y1="119.512" x2="70.1303" y2="98.2623" gradientUnits="userSpaceOnUse">
<stop stop-color="#FACC25"/>
<stop offset="1" stop-color="#F19C01"/>
</linearGradient>
<linearGradient id="paint2_linear_5721_2033" x1="33.2764" y1="53.527" x2="221.105" y2="52.6747" gradientUnits="userSpaceOnUse">
<stop stop-color="#FACC25"/>
<stop offset="0.41" stop-color="#F19C01"/>
<stop offset="1" stop-color="#F19C01"/>
</linearGradient>
<linearGradient id="paint3_linear_5721_2033" x1="95.3104" y1="100.445" x2="120.97" y2="100.445" gradientUnits="userSpaceOnUse">
<stop stop-color="#D28722"/>
<stop offset="0.24" stop-color="#FBD369"/>
<stop offset="0.32" stop-color="#F9D064"/>
<stop offset="0.88" stop-color="#EFBE47"/>
<stop offset="0.92" stop-color="#E4AA3A"/>
<stop offset="1" stop-color="#D58D27"/>
</linearGradient>
<linearGradient id="paint4_linear_5721_2033" x1="94.8123" y1="103.919" x2="104.247" y2="103.919" gradientUnits="userSpaceOnUse">
<stop stop-color="#F6DB7B"/>
<stop offset="0.2" stop-color="#B17E10"/>
<stop offset="0.26" stop-color="#B38114"/>
<stop offset="0.32" stop-color="#BB8B20"/>
<stop offset="0.38" stop-color="#C89C33"/>
<stop offset="0.44" stop-color="#D9B44E"/>
<stop offset="0.49" stop-color="#F0D371"/>
<stop offset="0.51" stop-color="#F6DB7B"/>
<stop offset="0.52" stop-color="#FAEFA2"/>
<stop offset="0.59" stop-color="#F6DB7B"/>
<stop offset="0.84" stop-color="#B17E10"/>
<stop offset="0.95" stop-color="#E3C15D"/>
<stop offset="1" stop-color="#F6DB7B"/>
</linearGradient>
<linearGradient id="paint5_linear_5721_2033" x1="-13.079" y1="101.174" x2="16.456" y2="101.174" gradientUnits="userSpaceOnUse">
<stop stop-color="#D28722"/>
<stop offset="0.24" stop-color="#FBD369"/>
<stop offset="0.32" stop-color="#F9D064"/>
<stop offset="0.88" stop-color="#EFBE47"/>
<stop offset="0.92" stop-color="#E4AA3A"/>
<stop offset="1" stop-color="#D58D27"/>
</linearGradient>
<linearGradient id="paint6_linear_5721_2033" x1="45.3228" y1="90.2854" x2="47.3555" y2="90.2854" gradientUnits="userSpaceOnUse">
<stop stop-color="#D28722"/>
<stop offset="0.24" stop-color="#FBD369"/>
<stop offset="0.32" stop-color="#F9D064"/>
<stop offset="0.88" stop-color="#EFBE47"/>
<stop offset="0.92" stop-color="#E4AA3A"/>
<stop offset="1" stop-color="#D58D27"/>
</linearGradient>
<linearGradient id="paint7_linear_5721_2033" x1="61.3375" y1="88.5523" x2="63.0463" y2="88.5523" gradientUnits="userSpaceOnUse">
<stop stop-color="#D28722"/>
<stop offset="0.24" stop-color="#FBD369"/>
<stop offset="0.32" stop-color="#F9D064"/>
<stop offset="0.88" stop-color="#EFBE47"/>
<stop offset="0.92" stop-color="#E4AA3A"/>
<stop offset="1" stop-color="#D58D27"/>
</linearGradient>
<linearGradient id="paint8_linear_5721_2033" x1="68.0552" y1="88.5111" x2="69.44" y2="88.5111" gradientUnits="userSpaceOnUse">
<stop stop-color="#D28722"/>
<stop offset="0.24" stop-color="#FBD369"/>
<stop offset="0.32" stop-color="#F9D064"/>
<stop offset="0.88" stop-color="#EFBE47"/>
<stop offset="0.92" stop-color="#E4AA3A"/>
<stop offset="1" stop-color="#D58D27"/>
</linearGradient>
<linearGradient id="paint9_linear_5721_2033" x1="11.1555" y1="90.7712" x2="109.867" y2="90.7712" gradientUnits="userSpaceOnUse">
<stop stop-color="#D28722"/>
<stop offset="0.24" stop-color="#FBD369"/>
<stop offset="0.32" stop-color="#F9D064"/>
<stop offset="0.88" stop-color="#EFBE47"/>
<stop offset="0.92" stop-color="#E4AA3A"/>
<stop offset="1" stop-color="#D58D27"/>
</linearGradient>
<linearGradient id="paint10_linear_5721_2033" x1="16.9135" y1="102.567" x2="26.3927" y2="102.567" gradientUnits="userSpaceOnUse">
<stop stop-color="#F6DB7B"/>
<stop offset="0.2" stop-color="#B17E10"/>
<stop offset="0.26" stop-color="#B38114"/>
<stop offset="0.32" stop-color="#BB8B20"/>
<stop offset="0.38" stop-color="#C89C33"/>
<stop offset="0.44" stop-color="#D9B44E"/>
<stop offset="0.49" stop-color="#F0D371"/>
<stop offset="0.51" stop-color="#F6DB7B"/>
<stop offset="0.52" stop-color="#FAEFA2"/>
<stop offset="0.59" stop-color="#F6DB7B"/>
<stop offset="0.84" stop-color="#B17E10"/>
<stop offset="0.95" stop-color="#E3C15D"/>
<stop offset="1" stop-color="#F6DB7B"/>
</linearGradient>
</defs>
</svg>
