<svg width="27" height="27" viewBox="0 0 27 27" fill="none" xmlns="http://www.w3.org/2000/svg">
<path d="M3.41 12.3333L6.17 9.57333C6.37 9.37333 6.46333 9.11999 6.46333 8.86666C6.46333 8.61333 6.37 8.34666 6.17 8.16C5.78333 7.77333 5.14333 7.77333 4.75667 8.16L0.29 12.6267C-0.0966667 13.0133 -0.0966667 13.6533 0.29 14.04L4.75667 18.5067C5.14333 18.8933 5.78333 18.8933 6.17 18.5067C6.55667 18.12 6.55667 17.48 6.17 17.0933L3.41 14.3333H9.33V12.3333H3.41V12.3333Z" fill="#BABAC1"/>
<path d="M19.73 0H16.2633C11.9967 0 9.32999 2.66667 9.32999 6.93333V12.3333H17.6633C18.21 12.3333 18.6633 12.7867 18.6633 13.3333C18.6633 13.88 18.21 14.3333 17.6633 14.3333H9.32999V19.7333C9.32999 24 11.9967 26.6667 16.2633 26.6667H19.7167C23.9833 26.6667 26.65 24 26.65 19.7333V6.93333C26.6633 2.66667 23.9967 0 19.73 0Z" fill="#BABAC1"/>
</svg>
