<svg width="81" height="40" viewBox="0 0 81 40" fill="none" xmlns="http://www.w3.org/2000/svg">
<path d="M40.7711 27.4582L42.2107 31.9225C42.2219 31.9572 42.2437 31.9875 42.273 32.0089C42.3023 32.0304 42.3376 32.042 42.3738 32.0421H47.0343C47.0702 32.043 47.1049 32.0552 47.1335 32.077C47.1621 32.0988 47.1832 32.1292 47.1939 32.1637C47.2045 32.1982 47.2042 32.2353 47.1929 32.2696C47.1815 32.3039 47.1598 32.3338 47.1308 32.355L43.3609 35.1135C43.3314 35.1351 43.3096 35.1656 43.2985 35.2005C43.2874 35.2355 43.2876 35.2731 43.2991 35.3079L44.7388 39.7722C44.7503 39.807 44.7505 39.8446 44.7395 39.8796C44.7284 39.9145 44.7065 39.9451 44.6771 39.9667C44.6477 39.9884 44.6122 40 44.5757 40C44.5393 39.9999 44.5038 39.9882 44.4744 39.9665L40.7083 37.2042C40.679 37.1829 40.6437 37.1715 40.6075 37.1715C40.5713 37.1715 40.5361 37.1829 40.5067 37.2042L36.7407 39.9646C36.7112 39.9859 36.6759 39.9973 36.6397 39.9971C36.6034 39.9969 36.5682 39.9852 36.539 39.9637C36.5097 39.9421 36.488 39.9118 36.4769 39.877C36.4659 39.8423 36.466 39.8049 36.4772 39.7702L37.9169 35.3059C37.9284 35.271 37.9286 35.2333 37.9173 35.1983C37.906 35.1634 37.8839 35.1329 37.8542 35.1115L34.0843 32.3531C34.0549 32.3316 34.0331 32.3013 34.0219 32.2665C34.0107 32.2317 34.0107 32.1942 34.022 32.1595C34.0332 32.1247 34.0551 32.0944 34.0845 32.073C34.1139 32.0515 34.1493 32.04 34.1856 32.0401H38.8451C38.8814 32.0402 38.9167 32.0287 38.946 32.0072C38.9754 31.9857 38.9971 31.9553 39.0082 31.9206L40.4488 27.4563C40.4601 27.4217 40.482 27.3917 40.5113 27.3704C40.5405 27.3491 40.5757 27.3376 40.6119 27.3376C40.648 27.3376 40.6832 27.3491 40.7125 27.3704C40.7417 27.3917 40.7636 27.4217 40.7749 27.4563" fill="#071A35"/>
<mask id="mask0_82_6420" style="mask-type:luminance" maskUnits="userSpaceOnUse" x="34" y="27" width="14" height="13">
<path d="M40.4449 27.1268L39.0043 31.5911C38.9933 31.6259 38.9715 31.6562 38.9422 31.6777C38.9129 31.6992 38.8775 31.7107 38.8412 31.7106H34.1817C34.1454 31.7106 34.11 31.7221 34.0806 31.7435C34.0512 31.765 34.0293 31.7952 34.0181 31.83C34.0068 31.8648 34.0068 31.9022 34.018 31.937C34.0292 31.9718 34.051 32.0021 34.0804 32.0236L37.8503 34.7821C37.88 34.8035 37.9021 34.8339 37.9134 34.8689C37.9247 34.9039 37.9246 34.9416 37.913 34.9765L36.4734 39.4398C36.4621 39.4744 36.462 39.5118 36.4731 39.5466C36.4841 39.5813 36.5059 39.6116 36.5351 39.6332C36.5643 39.6548 36.5995 39.6665 36.6358 39.6667C36.672 39.6668 36.7074 39.6555 36.7368 39.6342L40.5038 36.8738C40.5332 36.8525 40.5684 36.841 40.6046 36.841C40.6408 36.841 40.6761 36.8525 40.7054 36.8738L44.4792 39.6342C44.5086 39.6555 44.544 39.6668 44.5802 39.6667C44.6164 39.6665 44.6517 39.6548 44.6809 39.6332C44.7101 39.6116 44.7318 39.5813 44.7429 39.5466C44.754 39.5118 44.7539 39.4744 44.7426 39.4398L43.302 34.9755C43.2905 34.9407 43.2903 34.9031 43.3014 34.8681C43.3125 34.8332 43.3343 34.8027 43.3638 34.7811L47.1336 32.0226C47.1627 32.0014 47.1844 31.9715 47.1957 31.9372C47.2071 31.9029 47.2074 31.8658 47.1968 31.8313C47.1861 31.7968 47.165 31.7665 47.1364 31.7446C47.1077 31.7228 47.073 31.7106 47.0371 31.7097H42.3747C42.3384 31.7097 42.3029 31.6981 42.2735 31.6766C42.244 31.6552 42.2221 31.6249 42.2107 31.5901L40.7711 27.1258C40.7597 27.0913 40.7378 27.0612 40.7086 27.0399C40.6793 27.0186 40.6441 27.0071 40.608 27.0071C40.5719 27.0071 40.5367 27.0186 40.5074 27.0399C40.4781 27.0612 40.4563 27.0913 40.4449 27.1258" fill="white"/>
</mask>
<g mask="url(#mask0_82_6420)">
<path d="M38.2221 20.743L28.0487 35.6484L42.9927 45.9982L53.1662 31.0929L38.2221 20.743Z" fill="url(#paint0_linear_82_6420)"/>
</g>
<mask id="mask1_82_6420" style="mask-type:luminance" maskUnits="userSpaceOnUse" x="0" y="0" width="81" height="33">
<path d="M31.3845 7.10027C32.5636 10.1549 33.7453 13.1822 34.9295 16.1824C32.5546 16.264 30.1828 16.3758 27.8143 16.5177C29.0095 13.3309 30.1996 10.1918 31.3845 7.10027ZM64.7142 16.6771C65.8547 13.4035 66.9952 10.056 68.1396 6.61039C69.349 10.1743 70.556 13.8441 71.7609 17.6199C69.4162 17.2746 67.0682 16.9603 64.7171 16.6771M65.3703 0.0281851C62.5904 7.8448 59.8183 15.1676 57.0336 22.1892C53.9896 21.9093 50.9389 21.7025 47.8814 21.5691C47.8557 14.9357 47.83 8.30487 47.8042 1.67665C47.8035 1.58032 47.7649 1.48821 47.6969 1.42046C47.6289 1.35271 47.5371 1.31482 47.4414 1.31508H42.9546C42.9074 1.31469 42.8605 1.32378 42.8168 1.34181C42.7731 1.35984 42.7334 1.38646 42.7 1.42012C42.6666 1.45377 42.6401 1.49378 42.6222 1.53783C42.6043 1.58187 42.5953 1.62906 42.5957 1.67665L42.6266 21.0831C39.7994 14.5086 37.0021 7.97407 34.2319 1.30147L28.6924 1.31897C25.9762 7.9867 23.2426 14.8576 20.51 22.0891C20.5653 14.9956 20.6206 7.9002 20.676 0.802848C20.6767 0.754968 20.668 0.707418 20.6503 0.662982C20.6326 0.618545 20.6062 0.578119 20.5728 0.544077C20.5394 0.510036 20.4995 0.483064 20.4556 0.464743C20.4117 0.446422 20.3646 0.437123 20.317 0.437388H15.8302C15.7347 0.437635 15.6432 0.475685 15.5753 0.54333C15.5074 0.610975 15.4687 0.702791 15.4674 0.798962C15.4462 4.32723 15.4217 7.85873 15.3941 11.3935C11.9783 11.6695 8.56899 11.9909 5.1661 12.3577C5.17832 8.50671 5.19118 4.65608 5.20469 0.805764C5.20495 0.70943 5.16734 0.616911 5.10008 0.548429C5.03282 0.479947 4.94138 0.441074 4.84575 0.440304H0.363769C0.268045 0.440042 0.176098 0.477896 0.107961 0.545623C0.0398232 0.613349 0.00101799 0.705458 0 0.801878V31.4599C0.000440859 31.5461 0.0208417 31.6311 0.0595829 31.7081C0.098324 31.785 0.154338 31.8518 0.223179 31.9031C0.29202 31.9544 0.371791 31.9889 0.456159 32.0037C0.540527 32.0186 0.627168 32.0134 0.709204 31.9886C2.03788 31.5843 3.37041 31.1926 4.7068 30.8223C4.82252 30.7912 4.92473 30.7224 4.99739 30.6265C5.07004 30.5306 5.10902 30.4131 5.1082 30.2925C5.12557 26.021 5.13972 21.7476 5.15066 17.4722C8.54262 16.9538 11.9452 16.495 15.3584 16.0959C15.3326 19.9255 15.305 23.7541 15.2754 27.5817C15.275 27.6636 15.2928 27.7447 15.3274 27.8188C15.3621 27.893 15.4128 27.9584 15.4758 28.0103C15.5387 28.0621 15.6124 28.0992 15.6915 28.1187C15.7705 28.1382 15.8528 28.1397 15.9325 28.1231C16.9939 27.9083 22.2198 27.1171 23.6585 26.9363C23.7591 26.9237 23.8543 26.8832 23.9335 26.8194C24.0127 26.7555 24.0728 26.6709 24.1072 26.5747C24.7993 24.6645 25.4912 22.7743 26.1827 20.9042C29.6505 20.6113 33.1242 20.405 36.6036 20.2851C37.3112 21.9925 38.0188 23.7003 38.7264 25.4084C38.7698 25.5116 38.8434 25.599 38.9373 25.6591C39.0313 25.7192 39.1411 25.749 39.2523 25.7447C40.7556 25.7009 54.9513 26.1743 60.3625 26.8799C60.4774 26.8964 60.5946 26.8738 60.6954 26.8158C60.8095 26.818 60.9214 26.7844 61.0157 26.7196C61.1099 26.6548 61.1818 26.562 61.2212 26.4542C61.8645 24.6897 62.5078 22.9042 63.1511 21.0977C66.597 21.6063 70.0292 22.1986 73.4475 22.8744C74.1777 25.1592 74.9036 27.4897 75.6253 29.8658C75.652 29.9556 75.7009 30.037 75.7674 30.1025C75.8339 30.1679 75.9158 30.2153 76.0055 30.24C77.4361 30.6288 78.8642 31.0403 80.2897 31.4744C80.3851 31.5027 80.4863 31.5046 80.5827 31.4799C80.6791 31.4552 80.7671 31.4048 80.8375 31.334C80.9079 31.2632 80.958 31.1747 80.9827 31.0776C81.0074 30.9805 81.0056 30.8786 80.9777 30.7824C77.6883 19.5406 74.3102 9.37857 70.8983 0L65.3626 0.0262422" fill="white"/>
</mask>
<g mask="url(#mask1_82_6420)">
<path d="M81.1051 0.00195312H0.00195312V32.0955H81.1051V0.00195312Z" fill="url(#paint1_linear_82_6420)"/>
</g>
<path d="M33.6529 33.5001C29.6737 33.9656 25.6838 34.0696 21.6881 34.0832C17.6905 34.0696 13.7016 33.9666 9.7233 33.5001C13.7026 33.0306 17.6915 32.9276 21.6881 32.9169C25.6847 32.9324 29.6746 33.0364 33.6529 33.5001Z" fill="#111149"/>
<path d="M69.9603 33.7955C65.9811 34.2611 61.9921 34.3651 57.9955 34.3787C53.9989 34.3641 50.009 34.2611 46.0307 33.7955C50.01 33.3261 53.9998 33.223 57.9955 33.2123C61.9931 33.2279 65.982 33.3319 69.9603 33.7955Z" fill="#111149"/>
<defs>
<linearGradient id="paint0_linear_82_6420" x1="37.5997" y1="37.3197" x2="43.9704" y2="28.1212" gradientUnits="userSpaceOnUse">
<stop stop-color="#E37500"/>
<stop offset="1" stop-color="#FCF42E"/>
</linearGradient>
<linearGradient id="paint1_linear_82_6420" x1="0.00195312" y1="16.0959" x2="81.0047" y2="16.0959" gradientUnits="userSpaceOnUse">
<stop stop-color="#5B38AD"/>
<stop offset="1" stop-color="#371C7E"/>
</linearGradient>
</defs>
</svg>
