<svg width="24" height="23" viewBox="0 0 24 23" fill="none" xmlns="http://www.w3.org/2000/svg">
<path d="M16.5557 0C20.802 0.000132954 23.3339 2.53197 23.334 6.77832V16.5557C23.3339 19.8336 21.8286 22.0848 19.1807 22.9365C18.7721 19.8567 15.5518 17.4648 11.667 17.4648C7.78216 17.4648 4.56187 19.8567 4.15332 22.9365C1.50535 22.0848 0.000102379 19.8336 0 16.5557V6.77832C0.000133594 2.53197 2.53197 0.000133594 6.77832 0H16.5557ZM11.667 7C9.35708 7 7.49037 8.86688 7.49023 11.1768C7.49023 13.4868 9.35699 15.3652 11.667 15.3652C13.977 15.3652 15.8438 13.4868 15.8438 11.1768C15.8436 8.86688 13.9769 7 11.667 7Z" fill="white"/>
</svg>
