<svg width="24" height="24" viewBox="0 0 24 24" fill="none" xmlns="http://www.w3.org/2000/svg">
<path d="M16.5547 0C20.8013 0 23.333 2.53167 23.333 6.77832V16.5547C23.333 19.833 21.828 22.0849 19.1797 22.9365C18.4097 23.2048 17.5229 23.333 16.5547 23.333H6.77832C5.80999 23.333 4.92332 23.2049 4.15332 22.9365C1.50502 22.0848 0 19.833 0 16.5547V6.77832C1.02336e-05 2.53167 2.53167 4.1694e-06 6.77832 0H16.5547ZM9.04004 4C7.85506 4 6.83517 4.69003 6.34766 5.6875H5.92773C4.84773 5.6875 4 6.53523 4 7.61523C4.00007 8.69511 4.45785 9.61722 5.15527 10.3896C5.50025 10.7346 5.93474 11.043 6.42969 11.2305C7.14391 12.9883 8.77648 14.2671 10.7393 14.4707C10.7354 14.4702 10.7314 14.4702 10.7275 14.4697V16.1875H9.04004C8.21504 16.1875 7.54004 16.8625 7.54004 17.6875V17.875H6.79004C6.48254 17.875 6.22754 18.13 6.22754 18.4375C6.22756 18.745 6.48255 19 6.79004 19H15.79C16.0975 19 16.3525 18.745 16.3525 18.4375C16.3525 18.13 16.0975 17.875 15.79 17.875H15.04V17.6875C15.04 16.8625 14.365 16.1875 13.54 16.1875H11.8525V14.4697C11.8468 14.4704 11.8407 14.47 11.835 14.4707C13.8003 14.269 15.4355 12.99 16.1504 11.2305C16.6453 11.043 17.0798 10.7346 17.4248 10.3896C18.1222 9.61722 18.58 8.69509 18.5801 7.61523C18.5801 6.53523 17.7323 5.6875 16.6523 5.6875H16.2324C15.7449 4.69003 14.725 4.00002 13.54 4H9.04004ZM10.8477 6.96973C11.0951 6.58757 11.485 6.58754 11.7324 6.96973L12.1299 7.58496C12.1899 7.68245 12.325 7.78737 12.4375 7.81738L13.1504 7.99707C13.5852 8.10966 13.7124 8.49296 13.4199 8.83789L12.9551 9.40723C12.8801 9.48973 12.8275 9.65508 12.835 9.76758L12.8799 10.5029C12.9096 10.9526 12.5877 11.1843 12.168 11.0195L11.4854 10.75C11.3804 10.7125 11.1997 10.7125 11.0947 10.75L10.4121 11.0195C9.99233 11.1843 9.67043 10.9526 9.7002 10.5029L9.74512 9.76758C9.75262 9.65508 9.7 9.48973 9.625 9.40723L9.16016 8.83789C8.8677 8.49294 8.99484 8.10963 9.42969 7.99707L10.1426 7.81738C10.2551 7.78735 10.3902 7.68243 10.4502 7.58496L10.8477 6.96973Z" fill="white"/>
</svg>
