<svg width="203" height="57" viewBox="0 0 203 57" fill="none" xmlns="http://www.w3.org/2000/svg">
<path d="M-29.985 18.0946C-29.985 18.0946 -15.2287 10.0135 9.14924 10.0135C29.7113 10.0135 37.6934 19.6486 55.5797 19.6486C80.1215 19.6486 80.1215 3.48649 105.99 3.48649C128.542 3.48649 137.243 24 170.992 24C206.147 24 198.117 1 237.985 1" stroke="#5B38AD" stroke-width="2" stroke-linecap="round"/>
<path opacity="0.24" d="M171.5 24.2072C137.495 24.2072 128.728 3.50889 106.005 3.50889C79.9406 3.50889 79.9406 19.8167 55.2129 19.8167C37.191 19.8167 29.1485 10.0947 8.43069 10.0947C-16.1319 10.0947 -31 18.2486 -31 18.2486V57H239V1C198.83 1 206.921 24.2072 171.5 24.2072Z" fill="url(#paint0_linear_107_899)"/>
<defs>
<linearGradient id="paint0_linear_107_899" x1="104" y1="1" x2="104" y2="57" gradientUnits="userSpaceOnUse">
<stop stop-color="#5B38AD"/>
<stop offset="1" stop-color="#5B38AD" stop-opacity="0"/>
</linearGradient>
</defs>
</svg>
