<svg width="24" height="24" viewBox="0 0 24 24" fill="none" xmlns="http://www.w3.org/2000/svg">
<path d="M16.5557 0C20.802 0.000134979 23.3339 2.53197 23.334 6.77832V16.5557C23.3339 19.8336 21.8286 22.0848 19.1807 22.9365C18.4108 23.2048 17.5239 23.334 16.5557 23.334H6.77832C5.81012 23.334 4.92323 23.2048 4.15332 22.9365C1.50534 22.0848 0.000103939 19.8336 0 16.5557V6.77832C0.000131569 2.53196 2.53196 0.000131569 6.77832 0H16.5557ZM13.9326 16.125C12.5962 15.2262 10.3921 15.2262 9.04004 16.125C7.86008 16.9144 7.85997 18.2117 9.04004 18.9932C10.3843 19.8919 12.5884 19.8919 13.9326 18.9932C15.1127 18.2039 15.1125 16.9066 13.9326 16.125ZM11.4863 9.1377C9.99361 9.1377 8.79788 10.3413 8.79004 11.8262C8.79004 13.2798 9.93893 14.4599 11.377 14.5068C11.4473 14.499 11.5176 14.499 11.5801 14.5068C13.0259 14.4599 14.167 13.2798 14.1748 11.8262C14.1748 10.3413 12.9712 9.13773 11.4863 9.1377ZM7.71973 9.95801C6.60995 9.83296 5.42902 10.0603 4.59277 10.623C3.3584 11.4437 3.35819 12.7801 4.59277 13.6006C5.43683 14.1555 6.58651 14.3897 7.68848 14.2725C7.39149 13.6238 7.22656 12.9046 7.22656 12.1465C7.22658 11.3572 7.39932 10.6145 7.71973 9.95801ZM18.3486 10.623C17.4655 10.0369 16.2377 9.81733 15.0811 9.97363C15.4093 10.6223 15.581 11.365 15.5811 12.1465C15.5732 12.8968 15.4171 13.6082 15.1201 14.249C16.2533 14.3975 17.4811 14.1789 18.3564 13.5928C19.5831 12.7723 19.5829 11.4358 18.3486 10.623ZM7.21875 3.66699C5.97626 3.66717 4.96875 4.67544 4.96875 5.92578C4.96883 7.14481 5.92943 8.13753 7.14062 8.17676C7.19523 8.16896 7.25009 8.16899 7.30469 8.17676C8.51602 8.13768 9.47746 7.14491 9.47754 5.92578C9.47754 4.67532 8.46921 3.66699 7.21875 3.66699ZM15.7305 3.66699C14.48 3.66699 13.4717 4.68314 13.4717 5.92578C13.4718 7.14475 14.4324 8.13745 15.6436 8.17676C15.6983 8.16894 15.7539 8.16894 15.8086 8.17676C17.0197 8.13746 17.9804 7.14476 17.9883 5.92578C17.9883 4.67548 16.9729 3.66725 15.7305 3.66699Z" fill="white"/>
</svg>
