<svg width="34" height="25" viewBox="0 0 34 25" fill="none" xmlns="http://www.w3.org/2000/svg">
<path d="M29.0168 22.223C29.532 22.2256 30.0428 22.3166 30.5264 22.492C30.894 22.6188 30.9018 22.8026 30.7633 23.1032C30.2196 24.2842 29.2018 24.7893 27.9858 24.9621C27.3103 25.0537 26.6224 24.9786 25.9835 24.7434C25.5693 24.5969 25.5616 24.4012 25.7255 24.0688C26.3988 22.714 27.6026 22.2853 29.0168 22.223ZM5.07455 22.2328C6.41014 22.2722 7.55971 22.6702 8.25852 23.896C8.61291 24.5182 8.59739 24.5401 7.90854 24.7807C6.1931 25.3766 4.18863 24.7139 3.43996 23.3001C3.11547 22.6911 3.12322 22.6954 3.7722 22.4363C4.19413 22.269 4.63158 22.2427 5.07455 22.2328ZM10.9784 20.1498C11.7027 19.9694 11.7758 20.0033 11.9751 20.713C12.0281 20.9417 12.0659 21.1737 12.0881 21.4073C12.0516 22.7512 10.6329 24.1749 9.26735 24.2296C9.16973 24.2445 9.06986 24.225 8.9854 24.1744C8.90093 24.1238 8.83723 24.0453 8.80555 23.9529C8.64683 23.6545 8.55937 23.3241 8.54977 22.9872C8.54017 22.6502 8.60869 22.3155 8.75017 22.0087C9.19316 21.0618 9.92965 20.4101 10.9784 20.1498ZM22.0266 20.8485C22.1562 20.0908 22.3466 19.9672 23.0919 20.1552C24.4297 20.4942 25.4674 21.7058 25.4652 22.9305C25.4652 24.2131 25.0887 24.4678 23.9093 23.9966C22.5615 23.4564 21.7929 22.177 22.0266 20.8485ZM1.01792 18.9207C2.67911 18.2789 4.60499 18.8738 5.35142 20.2679C5.54079 20.6222 5.57291 20.8278 5.10116 20.9721C4.61621 21.1145 4.11192 21.1823 3.60608 21.1733C2.49861 21.1132 1.39112 20.7359 0.787554 19.4609C0.649121 19.1668 0.698965 19.0443 1.01792 18.9207ZM28.6957 20.3324C29.2306 19.2247 30.6349 18.5129 32.0247 18.6736C32.3151 18.7088 32.6012 18.7729 32.8786 18.865C33.4921 19.0629 33.5088 19.1034 33.1754 19.6796C32.5276 20.8026 31.4621 21.1351 30.2472 21.1679C29.807 21.1623 29.37 21.0907 28.9515 20.9557C28.5429 20.8278 28.5429 20.6473 28.6957 20.3324ZM8.18541 16.7437C8.49881 16.735 8.54977 16.923 8.6284 17.1198C9.07692 18.222 8.49656 19.5254 7.27391 20.164C7.20969 20.1979 7.1444 20.2318 7.07686 20.2625C6.02255 20.7359 5.60277 20.4593 5.61163 19.2969C5.6216 18.0668 6.94062 16.7765 8.18541 16.7437ZM25.4309 17.1286C25.5538 16.8005 25.7033 16.6912 26.0765 16.7535C27.3423 16.9635 28.4532 18.1215 28.4598 19.2948C28.4598 20.4374 28.0389 20.7162 26.999 20.2548C25.6457 19.6534 24.9845 18.3139 25.4309 17.1286ZM16.4874 7.76353C17.1427 7.76353 17.7241 7.87744 18.2317 8.10524C18.7392 8.32393 19.1361 8.63376 19.4222 9.03468C19.7083 9.4265 19.8513 9.88214 19.8513 10.4015C19.8513 10.8116 19.759 11.1624 19.5745 11.454C19.3899 11.7364 19.1592 11.9643 18.8823 12.1374C18.6054 12.3105 18.324 12.4244 18.0379 12.4791C18.324 12.5429 18.6054 12.6613 18.8823 12.8345C19.1592 13.0076 19.3899 13.24 19.5745 13.5316C19.759 13.8231 19.8513 14.174 19.8513 14.584C19.8513 15.1216 19.7037 15.5955 19.4084 16.0055C19.113 16.4156 18.7069 16.7391 18.1901 16.976C17.6825 17.2129 17.1104 17.3314 16.4736 17.3314C15.9752 17.3314 15.5091 17.2585 15.0754 17.1127C14.6509 16.9578 14.314 16.7755 14.0648 16.5659V14.7754L14.7016 15.1854C14.9231 15.3221 15.1585 15.436 15.4076 15.5271C15.666 15.6091 15.9521 15.6502 16.2659 15.6502C16.7458 15.6501 17.1427 15.5408 17.4564 15.3221C17.7794 15.0943 17.941 14.7663 17.941 14.338C17.9409 14.0829 17.8579 13.8687 17.6918 13.6956C17.5257 13.5225 17.3088 13.3949 17.0411 13.3129C16.7827 13.2309 16.5059 13.1899 16.2105 13.1899H15.4492V11.7137H16.2105C16.5336 11.7137 16.8243 11.6863 17.0827 11.6317C17.3411 11.5679 17.5487 11.4631 17.7056 11.3173C17.8625 11.1715 17.941 10.971 17.941 10.7159C17.9409 10.4425 17.8579 10.2147 17.6918 10.0325C17.5349 9.84113 17.3226 9.69532 17.055 9.59509C16.7966 9.49485 16.5151 9.44473 16.2105 9.44473C15.8137 9.44473 15.463 9.52675 15.1584 9.69076C14.8631 9.84567 14.5816 10.0507 14.314 10.3058V8.52896C14.554 8.31027 14.8585 8.12801 15.2277 7.98222C15.606 7.83643 16.026 7.76353 16.4874 7.76353ZM3.96925 15.6524C4.66585 14.8389 6.36035 14.443 7.31609 14.8509C7.57187 14.9602 7.4966 15.1089 7.45009 15.2883C7.16437 16.3784 6.03473 17.1122 4.53856 17.11C4.2174 17.0936 3.6315 17.1767 3.48419 16.8082C3.3369 16.4397 3.67688 15.9925 3.96925 15.6524ZM26.9536 14.7951C28.2748 14.4846 29.75 14.981 30.3436 15.9881C30.8231 16.8005 30.6924 17.0444 29.7445 17.1056C29.6326 17.1122 29.5218 17.1056 29.4122 17.1056C28.0777 17.1056 26.9758 16.4145 26.6214 15.3899C26.4996 15.0357 26.5472 14.8903 26.9536 14.7951ZM0.587042 13.6885C1.84845 13.7312 2.95597 14.6672 3.14092 15.8285C3.18852 16.1292 3.08331 16.4015 3.03569 16.6847C3.02789 16.7473 2.99557 16.8044 2.94571 16.8438C2.89584 16.8832 2.83235 16.9019 2.76877 16.8957C1.33793 16.9449 -0.388591 15.5835 0.0776507 14.0821C0.201672 13.6798 0.186189 13.6743 0.587042 13.6885ZM32.976 13.7399C33.7955 13.5343 33.9927 13.6907 33.9938 14.536C34.1046 15.695 32.7092 16.8815 31.3249 16.8946C31.0934 16.8946 31.0546 16.7535 31.0037 16.6004C30.6482 15.5288 31.2916 14.3742 32.5098 13.8974C32.6614 13.8347 32.8172 13.782 32.976 13.7399ZM27.0024 10.1861C28.5108 9.75641 30.1365 10.3906 30.6792 11.6656C30.8276 12.0144 30.7689 12.1599 30.4034 12.2342C30.0645 12.3031 29.7367 12.4365 29.3757 12.4125C28.2538 12.3031 27.2615 11.9751 26.6934 10.9035C26.504 10.5481 26.4852 10.3327 27.0024 10.1861ZM3.53957 11.3529C4.20405 10.2288 6.19746 9.68322 7.35697 10.289C7.65377 10.4421 7.49654 10.617 7.43452 10.781C7.0768 11.7422 5.9295 12.4201 4.63157 12.4102C4.40632 12.413 4.18204 12.3805 3.96709 12.314C3.183 12.1106 3.14199 12.0286 3.53957 11.3529ZM33.4722 8.68048C33.7324 8.69361 33.7701 8.86194 33.8332 9.0161C34.2762 10.1008 33.5641 11.3878 32.2462 11.8908C31.2838 12.2593 30.9893 12.0516 30.9893 11.0194C30.9893 9.88435 32.3492 8.62362 33.4722 8.68048ZM0.193913 9.14083C0.30466 8.7603 0.489628 8.62252 0.908251 8.73078C2.19512 9.05991 3.08111 9.99375 3.08111 11.1222C3.08046 11.2102 3.07487 11.2982 3.06446 11.3856C2.96922 12.0209 2.8009 12.1304 2.15859 11.9838C0.742147 11.6558 -0.167097 10.3294 0.193913 9.14083ZM27.3479 6.83248C28.2284 6.85436 29.0091 7.09711 29.5629 7.8308C29.6958 8.00576 29.7732 8.13592 29.534 8.31197C28.4753 9.09048 26.6181 8.8281 25.7986 7.79044C25.566 7.4974 25.6191 7.33766 25.9303 7.18348C26.3647 6.94884 26.8528 6.828 27.3479 6.83248ZM7.0137 6.82597C7.39272 6.84608 7.76245 6.94951 8.09575 7.12881C8.61069 7.39013 8.62616 7.47219 8.23083 7.91281C7.39249 8.84553 5.62054 9.04133 4.57619 8.32842C4.36024 8.1808 4.33804 8.06261 4.4953 7.85376C5.08004 7.07851 5.89406 6.83581 7.0137 6.82597ZM31.111 4.68058C31.2738 4.64012 31.3935 4.64886 31.5009 4.78117C31.9439 5.3279 32.1188 5.92277 31.8542 6.6029C31.5717 7.32894 31.0335 7.78168 30.2948 8.01896C30.1321 8.0714 30.0634 7.93359 29.9858 7.84394C29.7049 7.52833 29.5499 7.1226 29.5496 6.70242C29.5418 5.83859 30.2849 4.88507 31.111 4.68058ZM2.50856 4.85442C2.65916 4.67293 2.78762 4.62697 3.02347 4.70567C3.84742 4.98451 4.52082 5.83203 4.52082 6.92987C4.52081 7.19669 4.37901 7.77723 3.90393 7.96749C3.49859 8.12932 3.06114 7.72801 2.73665 7.40762C1.97918 6.66188 1.89836 5.59141 2.50856 4.85442ZM24.5814 3.60345C25.5782 2.90474 27.3701 3.1946 28.0634 4.16887C28.2272 4.39956 28.2305 4.51989 27.9581 4.66531C27.5284 4.89602 27.0821 5.02719 26.772 5.02282C25.762 5.02282 25.0488 4.76582 24.5349 4.08131C24.3998 3.90309 24.3489 3.76746 24.5814 3.60345ZM6.16536 3.98734C6.91955 3.15302 8.52098 2.96277 9.46786 3.58605C9.67936 3.72599 9.70816 3.84187 9.55536 4.05835C9.14671 4.64116 8.35599 5.00201 7.35265 4.99655C7.02041 5.02936 6.65927 4.91569 6.30488 4.75276C5.78552 4.51331 5.77003 4.42469 6.16536 3.98734ZM29.5252 1.28859C29.688 1.23834 29.7578 1.36411 29.8353 1.45486C30.0505 1.69667 30.183 1.99935 30.214 2.3198C30.2063 3.23284 29.5938 4.01795 28.8762 4.25633C28.6658 4.32521 28.5273 4.2968 28.3988 4.13278C28.0079 3.63635 27.9116 3.08301 28.142 2.50347C28.3912 1.87693 28.8785 1.4876 29.5252 1.28859ZM4.39234 1.3422C4.76886 1.17382 5.13876 1.51934 5.43113 1.77958C6.12329 2.40614 6.23954 3.35531 5.75115 4.03763C5.56954 4.29018 5.38795 4.33832 5.10116 4.21917C4.71938 4.05612 4.39629 3.78306 4.1742 3.4358C3.95211 3.08854 3.84133 2.68315 3.85634 2.27271C3.86854 2.00808 3.98925 1.52261 4.39234 1.3422ZM24.1672 0.626C24.1307 0.205033 24.2559 0.00493057 24.7387 0.0333503C25.7631 0.0923966 26.7033 0.79876 26.8617 1.6932C26.9481 2.17431 26.7953 2.36027 26.3147 2.36027C25.2338 2.34825 24.247 1.54779 24.1672 0.626ZM7.19529 1.67462C7.33483 0.690515 8.67819 -0.207165 9.65497 0.0421065C10.006 0.131769 9.93082 0.434628 9.9142 0.663161C9.85329 1.50075 8.97393 2.26945 8.01929 2.34928C7.9462 2.36021 7.872 2.35034 7.7978 2.35034C7.27175 2.36565 7.12109 2.19511 7.19529 1.67462Z" fill="url(#paint0_linear_123_322)"/>
<defs>
<linearGradient id="paint0_linear_123_322" x1="34" y1="25" x2="10.137" y2="-7.45368" gradientUnits="userSpaceOnUse">
<stop stop-color="#FCB304"/>
<stop offset="1" stop-color="#9333CD"/>
</linearGradient>
</defs>
</svg>
