<svg width="28" height="28" viewBox="0 0 28 28" fill="none" xmlns="http://www.w3.org/2000/svg">
<path d="M18.5547 2C22.8013 2 25.333 4.53167 25.333 8.77832V18.5547C25.333 21.833 23.828 24.0849 21.1797 24.9365C20.4097 25.2048 19.5229 25.333 18.5547 25.333H8.77832C7.80999 25.333 6.92332 25.2049 6.15332 24.9365C3.50502 24.0848 2 21.833 2 18.5547V8.77832C2.00001 4.53167 4.53167 2 8.77832 2H18.5547ZM11.04 6C9.85506 6 8.83517 6.69003 8.34766 7.6875H7.92773C6.84773 7.6875 6 8.53523 6 9.61523C6.00007 10.6951 6.45785 11.6172 7.15527 12.3896C7.50025 12.7346 7.93474 13.043 8.42969 13.2305C9.14391 14.9883 10.7765 16.2671 12.7393 16.4707C12.7354 16.4702 12.7314 16.4702 12.7275 16.4697V18.1875H11.04C10.215 18.1875 9.54004 18.8625 9.54004 19.6875V19.875H8.79004C8.48254 19.875 8.22754 20.13 8.22754 20.4375C8.22756 20.745 8.48255 21 8.79004 21H17.79C18.0975 21 18.3525 20.745 18.3525 20.4375C18.3525 20.13 18.0975 19.875 17.79 19.875H17.04V19.6875C17.04 18.8625 16.365 18.1875 15.54 18.1875H13.8525V16.4697C13.8468 16.4704 13.8407 16.47 13.835 16.4707C15.8003 16.269 17.4355 14.99 18.1504 13.2305C18.6453 13.043 19.0798 12.7346 19.4248 12.3896C20.1222 11.6172 20.58 10.6951 20.5801 9.61523C20.5801 8.53523 19.7323 7.6875 18.6523 7.6875H18.2324C17.7449 6.69003 16.725 6.00002 15.54 6H11.04ZM12.8477 8.96973C13.0951 8.58757 13.485 8.58754 13.7324 8.96973L14.1299 9.58496C14.1899 9.68245 14.325 9.78737 14.4375 9.81738L15.1504 9.99707C15.5852 10.1097 15.7124 10.493 15.4199 10.8379L14.9551 11.4072C14.8801 11.4897 14.8275 11.6551 14.835 11.7676L14.8799 12.5029C14.9096 12.9526 14.5877 13.1843 14.168 13.0195L13.4854 12.75C13.3804 12.7125 13.1997 12.7125 13.0947 12.75L12.4121 13.0195C11.9923 13.1843 11.6704 12.9526 11.7002 12.5029L11.7451 11.7676C11.7526 11.6551 11.7 11.4897 11.625 11.4072L11.1602 10.8379C10.8677 10.4929 10.9948 10.1096 11.4297 9.99707L12.1426 9.81738C12.2551 9.78735 12.3902 9.68243 12.4502 9.58496L12.8477 8.96973Z" fill="white"/>
</svg>
